<svg xmlns="http://www.w3.org/2000/svg" width="204" height="60" fill="none" viewBox="0 0 204 60"><path fill="#171717" d="M74.973 35.95a11.86 11.86 0 0 1-3.024 1.092c-1.05.224-2.121.336-3.213.336-1.162 0-2.233-.182-3.213-.546a7.438 7.438 0 0 1-2.541-1.554 7.326 7.326 0 0 1-1.68-2.478c-.392-.966-.588-2.044-.588-3.234s.196-2.268.588-3.234a7.105 7.105 0 0 1 1.68-2.457 7.275 7.275 0 0 1 2.541-1.575c.98-.364 2.051-.546 3.213-.546 1.19 0 2.282.147 3.276.441a6.33 6.33 0 0 1 2.646 1.47l-2.31 2.52a4.603 4.603 0 0 0-1.512-1.05c-.56-.238-1.26-.357-2.1-.357-.7 0-1.337.119-1.911.357a4.22 4.22 0 0 0-1.449 1.008c-.406.42-.721.924-.945 1.512a5.642 5.642 0 0 0-.315 1.911c0 .7.105 1.344.315 1.932a4.68 4.68 0 0 0 .945 1.512c.406.42.889.749 1.449.987a4.944 4.944 0 0 0 1.911.357c.714 0 1.33-.077 1.848-.231.518-.168.931-.336 1.239-.504v-2.415h-2.667V28.18h5.817v7.77Zm2.086-6.384c0-1.19.196-2.268.588-3.234a7.105 7.105 0 0 1 1.68-2.457 7.275 7.275 0 0 1 2.54-1.575c.98-.364 2.052-.546 3.214-.546s2.233.182 3.213.546c.98.364 1.827.889 2.54 1.575a6.87 6.87 0 0 1 1.66 2.457c.406.966.609 2.044.609 3.234s-.203 2.268-.61 3.234a7.08 7.08 0 0 1-1.658 2.478 7.438 7.438 0 0 1-2.541 1.554c-.98.364-2.051.546-3.213.546s-2.233-.182-3.213-.546a7.438 7.438 0 0 1-2.541-1.554 7.326 7.326 0 0 1-1.68-2.478c-.392-.966-.588-2.044-.588-3.234Zm3.402 0c0 .7.105 1.344.315 1.932a4.68 4.68 0 0 0 .945 1.512c.406.42.889.749 1.449.987a4.944 4.944 0 0 0 1.91.357c.7 0 1.33-.119 1.89-.357a4.315 4.315 0 0 0 1.47-.987c.407-.434.715-.938.925-1.512a5.385 5.385 0 0 0 .336-1.932c0-.686-.112-1.323-.336-1.911a4.154 4.154 0 0 0-.924-1.512 4.174 4.174 0 0 0-1.47-1.008c-.56-.238-1.19-.357-1.89-.357s-1.337.119-1.911.357a4.22 4.22 0 0 0-1.45 1.008c-.405.42-.72.924-.944 1.512a5.642 5.642 0 0 0-.315 1.911Zm14.07 0c0-1.19.196-2.268.588-3.234a7.105 7.105 0 0 1 1.68-2.457A7.275 7.275 0 0 1 99.34 22.3c.98-.364 2.051-.546 3.213-.546s2.233.182 3.213.546c.98.364 1.827.889 2.541 1.575a6.87 6.87 0 0 1 1.659 2.457c.406.966.609 2.044.609 3.234s-.203 2.268-.609 3.234a7.08 7.08 0 0 1-1.659 2.478 7.438 7.438 0 0 1-2.541 1.554c-.98.364-2.051.546-3.213.546s-2.233-.182-3.213-.546a7.438 7.438 0 0 1-2.54-1.554 7.326 7.326 0 0 1-1.68-2.478c-.393-.966-.589-2.044-.589-3.234Zm3.402 0c0 .7.105 1.344.315 1.932a4.68 4.68 0 0 0 .945 1.512c.406.42.889.749 1.449.987a4.944 4.944 0 0 0 1.911.357c.7 0 1.33-.119 1.89-.357a4.315 4.315 0 0 0 1.47-.987c.406-.434.714-.938.924-1.512a5.385 5.385 0 0 0 .336-1.932c0-.686-.112-1.323-.336-1.911a4.154 4.154 0 0 0-.924-1.512 4.174 4.174 0 0 0-1.47-1.008c-.56-.238-1.19-.357-1.89-.357s-1.337.119-1.911.357a4.218 4.218 0 0 0-1.449 1.008c-.406.42-.72.924-.945 1.512a5.642 5.642 0 0 0-.315 1.911Zm14.869-7.434h4.914c1.19 0 2.317.133 3.381.399 1.078.266 2.016.7 2.814 1.302.798.588 1.428 1.358 1.89 2.31.476.952.714 2.107.714 3.465 0 1.204-.231 2.268-.693 3.192a6.863 6.863 0 0 1-1.827 2.31 8.234 8.234 0 0 1-2.667 1.407 10.357 10.357 0 0 1-3.171.483h-5.355V22.132Zm3.276 11.844h1.701a9.02 9.02 0 0 0 2.1-.231c.658-.154 1.225-.406 1.701-.756a3.691 3.691 0 0 0 1.113-1.407c.28-.588.42-1.302.42-2.142 0-.728-.14-1.358-.42-1.89a3.677 3.677 0 0 0-1.092-1.344 4.674 4.674 0 0 0-1.638-.777 6.858 6.858 0 0 0-1.953-.273h-1.932v8.82Zm18.872-11.844h3.276v5.544h6.363v-5.544h3.276V37h-3.276v-6.426h-6.363V37h-3.276V22.132Zm16.061 0h10.101v3.024h-6.825v2.772h6.447v3.024h-6.447v3.024h7.203V37h-10.479V22.132Zm17.995 0h2.709L178.183 37h-3.696l-1.281-3.15h-5.775L166.192 37h-3.612l6.426-14.868Zm1.26 4.326-1.806 4.62h3.633l-1.827-4.62Zm9.412-4.326h5.754c.756 0 1.47.077 2.142.231.686.14 1.281.385 1.785.735.518.336.924.798 1.218 1.386.308.574.462 1.295.462 2.163 0 1.05-.273 1.946-.819 2.688-.546.728-1.344 1.19-2.394 1.386l3.78 6.279h-3.927l-3.108-5.943h-1.617V37h-3.276V22.132Zm3.276 6.153h1.932c.294 0 .602-.007.924-.021.336-.028.637-.091.903-.189.266-.112.483-.28.651-.504.182-.224.273-.539.273-.945 0-.378-.077-.679-.231-.903a1.457 1.457 0 0 0-.588-.504 2.442 2.442 0 0 0-.819-.252 6.68 6.68 0 0 0-.903-.063h-2.142v3.381Zm12.849-3.255h-4.242v-2.898h11.76v2.898h-4.242V37h-3.276V25.03Z"/><path fill="#469720" fill-rule="evenodd" d="M47.15 8.782c-5.49 1.89-10.98 3.783-15.8 5.92-4.82 2.14-8.972 4.523-12.075 6.767-3.103 2.244-5.161 4.345-6.9 7.209-1.737 2.863-3.161 6.487-3.64 10.213-.479 3.725-.012 7.555.453 11.386 6.39-6.647 12.776-13.297 13.89-13.954 1.117-.657-3.041 4.675-5.846 8.344a324.836 324.836 0 0 0-5.713 7.666c3.951-.416 7.896-.837 11.437-1.929 3.538-1.098 6.673-2.87 9.547-5.28 2.879-2.407 5.497-5.459 7.556-10.15 2.06-4.692 3.555-11.027 4.644-15.668 1.088-4.64 1.767-7.584 2.447-10.522" clip-rule="evenodd"/></svg>