<svg xmlns="http://www.w3.org/2000/svg" width="226" height="91" fill="none" viewBox="0 0 226 91"><g clip-path="url(#a)"><path fill="url(#b)" d="M69.877 65.542c-1.211-3.153-2.36-9.116-3.355-12.83-.776-2.841-1.18-4.527-.62-4.84.62-.343 1.273.688 1.552 1.406.59 1.592 1.305 4.87 1.771 6.024.466 1.156.808.375.746-.312-.063-.687-1.274-7.835-1.492-9.334-.217-1.498-.03-2.684.529-2.778.59-.063 1.056.999 1.304 1.904.28 1 1.74 7.368 1.988 8.335.249.968.404 1.686.684 1.655.28-.032.217-.312.248-.812 0-.5-.932-8.553-1.149-10.24-.248-1.935-.342-3.777.715-3.901.87-.125 1.242 1.28 1.522 2.903a4225.7 4225.7 0 0 1 1.74 10.458c.123.78.59.811.558.187 0-.624-.528-9.178-.62-10.083-.063-.906.154-2.529.869-2.591 1.18-.094 1.367 2.341 1.398 2.934.093 1.124.28 3.933.745 6.868.404 2.56.777 5.963 1.119 6.93 0 0 .062.406.372.125 1.026-.75 3.417-4.62 5.095-5.37 1.802-.78 2.889.157 1.833.812-1.056.656-4.256 6.993-4.66 9.022-.404 1.998-1.056 2.716-2.392 5.057-.963 1.686-.497 5.089-.155 6.837 6.15-7.71 9.878-17.513 9.878-28.158C90.1 20.838 70.002.64 45.212.64S.293 20.839.293 45.782c0 8.335 2.237 16.108 6.15 22.82.094-1.061.125-2.03.094-2.685-.31-4.09.466-11.456.621-16.14.124-3.59.249-5.68.963-5.837.839-.156 1.243 1.249 1.305 2.185.124 2.06-.218 6.12-.062 7.649.155 1.498.807.749.994-.094.186-.812 1.274-9.552 1.553-11.394.28-1.81.901-3.153 1.615-3.028.715.125.901 1.56.87 2.684 0 1.249-.59 9.178-.652 10.427-.062 1.218-.124 2.123.217 2.154.342.062.373-.25.56-.843.186-.593 1.925-10.27 2.267-12.33.404-2.342.932-4.527 2.237-4.309 1.056.188.994 1.936.745 3.902-.217 1.593-1.522 11.832-1.646 12.8-.124.967.404 1.155.59.405.187-.718 2.61-10.863 2.858-11.956.249-1.093 1.056-2.903 1.895-2.716 1.398.312.746 3.216.621 3.902-.28 1.343-1.056 4.683-1.553 8.273-.435 3.122-1.211 7.211-1.15 8.46 0 0-.061.5.405.28 1.46-.53 5.622-4.151 7.797-4.432 2.36-.281 3.324 1.218 1.864 1.592-1.46.375-7.425 6.618-8.605 8.835-1.18 2.185-2.175 2.778-4.567 5.026-1.801 1.717-2.454 6.18-2.64 8.241a44.636 44.636 0 0 0 19.943 10.114c.28-5.712.497-16.826-.497-20.76-1.273-5.087-1.895-14.515-2.702-20.447-.622-4.526-.932-7.21-.032-7.554 1.026-.406 1.833 1.28 2.113 2.466.59 2.56 1.056 7.773 1.553 9.646.497 1.873 1.18.75 1.243-.312.03-1.061-.435-12.3-.497-14.672-.063-2.342.466-4.152 1.367-4.152.9 0 1.46 1.748 1.646 3.215.217 1.592 1.242 11.707 1.429 13.236.186 1.53.31 2.685.745 2.685s.404-.406.528-1.186c.125-.78.218-13.361.218-15.983 0-3.029.186-5.9 1.895-5.9 1.367 0 1.677 2.216 1.77 4.776.063 2.029.622 15.234.653 16.483.031 1.217.745 1.342.839.405.093-.936.963-14.235 1.025-15.67.093-1.437.714-3.872 1.833-3.81 1.832.094 1.646 3.903 1.615 4.777-.093 1.748-.342 6.119-.186 10.739.124 4.027.03 9.365.372 10.895 0 0 0 .624.56.25 1.74-.968 6.181-6.431 8.884-7.243 2.92-.874 4.442.78 2.703 1.592-1.74.78-7.922 9.959-8.947 12.987-1.025 3.028-2.144 3.995-4.66 7.336-2.547 3.34-1.429 12.33-1.429 12.33l.404 4.808c8.294-.874 15.936-4.058 22.273-8.835-.31-4.183-1.335-13.735-2.33-16.264l-.093-.062Z"/><path fill="url(#c)" d="M68.82 70.63c-1.18.343-3.106 2.747-3.851 3.153-.249.156-.249-.125-.249-.125-.155-.656-.093-2.997-.155-4.745-.062-1.998.031-3.902.062-4.683 0-.374.093-2.029-.683-2.091-.497 0-.746 1.03-.808 1.654-.031.625-.404 6.4-.435 6.837-.031.406-.342.374-.373-.188 0-.53-.248-6.274-.28-7.18-.03-1.092-.155-2.091-.776-2.091-.714 0-.808 1.249-.808 2.56 0 1.155-.03 6.618-.093 6.961-.062.344-.03.53-.217.53s-.249-.499-.31-1.185c-.094-.687-.529-5.058-.622-5.776-.093-.624-.342-1.404-.715-1.404-.372 0-.62.78-.59 1.81 0 1.03.218 5.9.218 6.369 0 .468-.311.967-.529.156-.217-.812-.434-3.06-.683-4.183-.124-.5-.497-1.25-.932-1.062-.373.156-.248 1.311 0 3.278.342 2.591.621 6.68 1.18 8.897.529 2.154.25 9.272.125 10.395a41.923 41.923 0 0 0 6.275-1.966l-.093-1.124s-.497-3.902.621-5.37c1.087-1.467 1.584-1.873 2.02-3.184.434-1.31 3.137-5.307 3.882-5.65.746-.344.093-1.061-1.18-.687v.094Z"/><path fill="url(#d)" d="M33.935 73.034c-.994.219-2.764 2.092-3.417 2.404-.217.125-.186-.125-.186-.125-.093-.562.093-2.498.155-3.965.063-1.686.28-3.278.342-3.902.031-.312.218-1.717-.466-1.78-.404-.03-.714.812-.776 1.343-.063.53-.746 5.338-.777 5.682-.062.343-.31.28-.28-.156 0-.438.187-5.276.218-6.025.03-.937 0-1.749-.528-1.78-.622-.031-.746 1-.84 2.092-.061.968-.434 5.556-.496 5.806-.062.281-.062.437-.218.406-.155 0-.186-.437-.186-.999s-.124-4.277-.155-4.87c-.031-.53-.187-1.186-.528-1.217-.342 0-.56.624-.622 1.467-.03.843-.155 4.963-.217 5.338-.031.375-.31.78-.466.094-.124-.687-.155-2.591-.31-3.56-.063-.436-.342-1.06-.715-.936-.342.094-.28 1.093-.187 2.748.125 2.185.125 5.619.435 7.523.218 1.217 0 4.183-.248 6.368a42.067 42.067 0 0 0 5.094 2.373v-2.217s-.186-3.309.808-4.433c1.025-1.154 1.429-1.467 1.895-2.528.466-1.093 2.951-4.246 3.604-4.495.652-.25.155-.874-.933-.656Z"/><path fill="url(#e)" d="M48.754 57.738c-2.734-1-4.536 1.78-4.598 1.935-.093-.125-1.864-2.903-4.598-1.935-2.795.999-2.64 4.714-.59 6.868 1.988 2.122 5.033 3.746 5.188 3.808.155-.062 3.169-1.717 5.188-3.808 2.05-2.154 2.236-5.87-.59-6.868Z"/><path fill="url(#f)" d="M18.621 58.986c-1.988-1.124-3.727.78-3.82.874-.032-.125-1.057-2.498-3.293-2.092-2.3.406-2.672 3.278-1.367 5.214 1.273 1.904 3.386 3.558 3.51 3.652.124-.031 2.671-.905 4.504-2.248 1.864-1.404 2.485-4.214.435-5.369l.031-.031Z"/><path fill="url(#g)" d="M77.737 57.175c-1.833-.406-2.734 1.53-2.796 1.592-.062-.062-1.429-1.717-3.106-.843-1.709.874-1.305 3.216.186 4.433 1.46 1.186 3.51 1.998 3.603 2.03 0 0 1.895-1.343 3.014-2.873 1.15-1.56.963-3.933-.932-4.339h.03Z"/><path fill="#726658" d="M97.929 30.39h.87v-5.493h-.87v-.78h2.733v.78h-.87v5.494h.87v.78h-2.733v-.78Zm3.759 0h.869v-5.493h-.869v-.78h1.863L107 29.141c.124.188.248.5.248.5s-.062-.344-.062-.562v-4.215h-.901v-.78h2.765v.78h-.87v6.275h-.963l-3.448-5.026c-.124-.187-.249-.5-.249-.5s.062.344.031.563v4.214h.901v.78h-2.764v-.78Zm9.692.001h.87v-5.432h-1.647v1.093h-.87v-1.904h5.996v1.904h-.87v-1.093h-1.646v5.432h.869v.78h-2.764v-.78h.062Zm5.156-.001h.87v-5.493h-.87v-.78h5.064v1.622h-.87v-.811h-2.33v2.247h2.485v.812H118.4v2.31h2.516v-.843h.87v1.655h-5.219v-.78l-.031.062Zm6.244 0h.87v-5.493h-.87v-.78h3.045c.497 0 .9 0 1.304.155.746.25 1.212.874 1.212 1.81 0 1.031-.559 1.75-1.46 1.968 0 0 .186.124.31.343l.994 1.717c.125.187.249.218.498.218h.217v.78h-.59c-.59 0-.746-.124-.963-.53l-1.088-1.935c-.186-.312-.31-.375-.745-.375h-.839v2.06h.87v.78h-2.734v-.78l-.031.063Zm3.262-2.871c.777 0 1.274-.5 1.274-1.311 0-.562-.218-.937-.653-1.093-.217-.093-.528-.125-.869-.125h-1.15v2.56h1.398v-.031Zm3.635 2.871h.87v-5.493h-.87v-.78h1.864l3.448 5.025c.124.188.248.5.248.5h.031s-.062-.344-.062-.562v-4.215h-.901v-.78h2.765v.78h-.87v6.275h-.963l-3.448-5.026c-.124-.187-.248-.5-.248-.5s.062.344.031.563v4.214h.901v.78h-2.765v-.78h-.031Zm7.797.001h.683l2.237-6.243h1.118l2.237 6.243h.683v.78h-2.423v-.78h.746l-.529-1.56h-2.485l-.559 1.56h.746v.78h-2.423v-.78h-.031Zm4.442-2.373-.839-2.434a3.113 3.113 0 0 1-.124-.531s0 .25-.124.53l-.87 2.435h1.988-.031Zm3.977 2.373h.869v-5.432h-1.646v1.093h-.87v-1.904h5.996v1.904h-.87v-1.093h-1.647v5.432h.87v.78h-2.765v-.78h.063Zm5.187-.001h.87v-5.493h-.87v-.78h2.734v.78h-.87v5.494h.87v.78h-2.734v-.78Zm7.238-6.367c2.02 0 3.604 1.56 3.604 3.59 0 2.029-1.584 3.683-3.604 3.683-2.019 0-3.603-1.623-3.603-3.683 0-2.06 1.553-3.59 3.603-3.59Zm0 6.399c1.429 0 2.579-1.217 2.579-2.81 0-1.592-1.15-2.715-2.579-2.715-1.429 0-2.578 1.186-2.578 2.716 0 1.53 1.149 2.809 2.578 2.809Zm4.536-.032h.869v-5.493h-.869v-.78h1.863l3.449 5.025c.124.188.248.5.248.5s-.062-.344-.062-.562v-4.215h-.901v-.78h2.765v.78h-.87v6.275h-.963l-3.448-5.026c-.124-.187-.249-.5-.249-.5s.062.344.031.563v4.214h.901v.78h-2.764v-.78Zm7.765.001h.684l2.236-6.243h1.119l2.236 6.243h.684v.78h-2.423v-.78h.745l-.528-1.56h-2.485l-.559 1.56h.745v.78h-2.423v-.78h-.031Zm4.442-2.373-.838-2.434c-.094-.282-.125-.531-.125-.531s-.031.25-.124.53l-.87 2.435h1.988-.031Zm3.107 2.373h.87v-5.432h-.87v-.811h2.734v.811h-.87v5.4h2.423v-1.123h.87v1.935h-5.157v-.78Z"/><path fill="#0E4C64" d="M102.029 41.473c0 4.527.093 8.148 1.149 11.02 1.057-2.903 1.15-6.493 1.15-11.02v-6.087h4.628v6.368c0 6.025-.59 10.739-3.292 14.766h-4.971c-2.702-4.027-3.293-8.772-3.293-14.766v-6.368h4.66v6.087h-.031Zm14.787-6.337c4.535 0 5.871 2.216 5.871 7.086v7.523c0 4.87-1.336 7.087-5.871 7.087-4.536 0-5.84-2.217-5.84-7.087v-7.523c0-4.87 1.335-7.086 5.84-7.086Zm-1.15 15.858c0 1.28.062 1.873 1.15 1.873 1.087 0 1.149-.624 1.149-2.029V41.13c0-1.373-.062-1.966-1.149-1.966-1.088 0-1.15.562-1.15 1.842v10.02-.03Zm14.291-15.577v17.138h4.815v4.027h-9.475V35.417h4.66Zm10.809 15.578c0 1.28.062 1.873 1.149 1.873 1.15 0 1.181-.687 1.181-2.217V35.448h4.66v14.33c0 4.838-1.336 7.085-5.841 7.085-4.504 0-5.809-2.247-5.809-7.086V35.448h4.66v15.578-.032Zm14.042-15.578c.839 1.374 1.74 3.215 2.609 5.588v-5.588h4.629v21.165h-4.629v-4.151c0-3.59-.776-6.9-2.298-9.896v14.047h-4.66V35.417h4.349Zm9.195 0h10.096v3.871h-2.703v17.294h-4.659V39.288h-2.703v-3.871h-.031Zm11.99 0h9.506v4.027h-4.846v3.59h4.66v3.996h-4.66v5.525h5.063v4.027h-9.723V35.417Zm11.96 0h9.506v4.027h-4.846v3.59h4.659v3.996h-4.659v5.525h5.063v4.027h-9.723V35.417Zm18.142 0c4.132 0 5.437 1.842 5.437 6.368 0 2.342-.591 3.778-1.523 4.277l1.709 10.49h-4.877l-1.212-9.553h-1.149v9.552h-4.66V35.386h6.213l.062.031Zm-.963 8.023c1.46 0 1.802-.5 1.802-2.217 0-1.467-.435-2.06-1.646-2.06h-.932v4.308h.776v-.031Zm15.75-2.342c0-1.31-.435-1.935-1.429-1.935-.715 0-1.212.437-1.212 1.155 0 1.155 1.709 2.31 4.318 4.433 2.019 1.623 2.703 3.371 2.703 5.993 0 4.09-1.926 6.12-5.871 6.12-3.946 0-5.903-1.936-5.903-6.12v-2.56h4.722v2.342c0 1.56.311 2.341 1.243 2.341.683 0 1.118-.562 1.118-1.592 0-1.748-.87-2.622-2.299-3.902-2.609-2.279-4.722-3.715-4.722-6.93 0-3.216 2.02-5.338 5.841-5.338 4.255 0 5.746 1.748 5.746 5.837v1.374h-4.255v-1.218Z"/><path fill="#726658" d="M97.929 66.478h.87v-5.494h-.87v-.78h2.982c.59 0 1.025 0 1.491.155 1.336.406 2.206 1.623 2.206 3.34 0 1.717-.839 2.904-2.206 3.34-.466.157-.932.188-1.491.188h-2.982v-.78.03Zm2.92-.031c.466 0 .839-.032 1.18-.188.932-.312 1.522-1.248 1.522-2.528s-.59-2.186-1.522-2.529c-.373-.125-.745-.156-1.211-.156h-1.056v5.4h1.087Zm4.193.031h.683l2.237-6.244h1.118l2.237 6.244H112v.78h-2.423v-.78h.746l-.528-1.561h-2.485l-.559 1.56h.745v.781h-2.423v-.78h-.031Zm4.442-2.373-.839-2.435c-.093-.28-.124-.53-.124-.53h-.031s0 .25-.124.53l-.87 2.435h1.988Zm3.915 2.373h.87V64.26l-1.957-3.277h-.653v-.78h2.392v.78h-.745l1.304 2.216.125.312s.062-.156.155-.312l1.305-2.216h-.715v-.78h2.392v.78h-.652l-1.957 3.277v2.217h.869v.78h-2.764v-.78h.031Z"/><path fill="#8DC63F" d="M183.232 66.665h-61.104v-5.182h61.104l-1.647 2.654 1.647 2.528Z"/></g><defs><linearGradient id="b" x1="45.212" x2="45.212" y1="-13.876" y2="98.445" gradientUnits="userSpaceOnUse"><stop offset=".04" stop-color="#49B749"/><stop offset="1" stop-color="#0E4C64"/></linearGradient><linearGradient id="c" x1="63.012" x2="63.012" y1="55.427" y2="95.354" gradientUnits="userSpaceOnUse"><stop offset=".04" stop-color="#49B749"/><stop offset=".4" stop-color="#2D8555"/><stop offset=".75" stop-color="#165B5F"/><stop offset=".94" stop-color="#0E4C64"/></linearGradient><linearGradient id="d" x1="29.152" x2="29.152" y1="59.86" y2="92.982" gradientUnits="userSpaceOnUse"><stop offset=".04" stop-color="#49B749"/><stop offset=".4" stop-color="#2D8555"/><stop offset=".75" stop-color="#165B5F"/><stop offset=".94" stop-color="#0E4C64"/></linearGradient><linearGradient id="e" x1="44.156" x2="44.156" y1="76.125" y2="45.938" gradientUnits="userSpaceOnUse"><stop offset=".04" stop-color="#49B749"/><stop offset="1" stop-color="#0E4C64"/></linearGradient><linearGradient id="f" x1="12.673" x2="16.677" y1="72.561" y2="49.274" gradientUnits="userSpaceOnUse"><stop offset=".04" stop-color="#49B749"/><stop offset="1" stop-color="#0E4C64"/></linearGradient><linearGradient id="g" x1="76.273" x2="73.815" y1="69.274" y2="50.015" gradientUnits="userSpaceOnUse"><stop offset=".04" stop-color="#49B749"/><stop offset="1" stop-color="#0E4C64"/></linearGradient><clipPath id="a"><path fill="#fff" d="M0 0h225v90H0z" transform="translate(.293 .64)"/></clipPath></defs></svg>