<svg xmlns="http://www.w3.org/2000/svg" width="103" height="120" fill="none" viewBox="0 0 103 120"><path fill="#EC1651" fill-rule="evenodd" d="M88.215 46.696c-2.774-3.065-5.913-5.659-8.85-8.387-3.116-2.891-7.46-5.263-4.582-9.155 4.509-3.228 12.43 6.227 16.677 6.463 5.233.785 7.311-6.444 2.55-9.253l-9.3-5.454c-9.787-4.767-8.745-13.406-18.897-18.647C50.85-5.313 34.62 9.604 24.193 12.672c-5.074 1.491-7.39.008-10.616.48-9.72.655-8.692 12.945 4.425 12.23 18.668 0 16.343 3.875 16.697 21.213.123 6.079-1.533 16.813 2.117 21.308 4.13 4.54 9.74 2.044 10.458-3.536 1.27-9.862-3.004-22.452-4.562-26.678-2.215-6.015-5.003-11.911-4.773-15.837.289-4.94 5.267-8.906 9.871-7.644 4.172 1.144 5.77 3.494 6.879 7.624 3.063-2.989 5.638-4.195 9.81-3.053 4.607 1.262 7.212 5.414 6.39 9.404-1.738 8.438-14.117 9.19-18.567 12.254-5.438 3.749-1.114 8.244.649 11.819 2.538 5.145 4.338 12.918 7.044 16.56 1.367 1.638 4.338 2.05 6.379 1.358a75.9 75.9 0 0 0 1.519-.819c3.237-2.176 2.44-6.245.898-9.346-1.788-3.6-10.051-16.283-7.078-18.913 6.053-4.534 13.218 12.304 19.274 14.076 2.49 2.31 12.267-1.264 7.205-8.48l.002.004Z" clip-rule="evenodd"/><path fill="#2E3191" d="M1.889 99.053c0-.413.025-.853.073-1.313.255-2.091.912-3.948 1.968-5.563 1.289-1.971 2.839-2.955 4.65-2.955.788 0 1.482.151 2.077.457.244-.292.573-.443.986-.457.802.01 1.218.53 1.24 1.553 0 .037-.67 4.86-2.01 14.472 2.701-2.019 4.411-3.329 5.133-3.929.443-.401.906-.605 1.386-.619.172 0 .335.053.495.162.353.244.53.553.53.928-.011.57-.348 1.133-1.005 1.691-1.213 1.021-3.568 2.874-7.072 5.563l-.857 6.065c-.207 1.388-.797 2.446-1.771 3.175a4.36 4.36 0 0 1-2.611.858c-1.12-.012-2.112-.438-2.976-1.276-.828-.839-1.241-1.775-1.241-2.81 0-1.035.23-1.867.693-2.535.292-.426.86-.947 1.699-1.57l.036.031s.048-.059.107-.143a752.53 752.53 0 0 0 4.338-3.242l.528-3.566c-.812.549-1.66.833-2.544.844-.775 0-1.449-.202-2.019-.603-1.224-.9-1.836-2.639-1.836-5.218h.003Zm4.986 14.595.312-2.261a161.685 161.685 0 0 0-2.024 1.565c-.868.679-1.309 1.321-1.32 1.924 0 .213.037.415.11.603.207.552.59.83 1.15.83.23 0 .439-.037.621-.113.595-.263.98-1.113 1.151-2.548Zm1.505-13.37c.169-.244.376-.892.62-1.949.498-2.148.857-4.31 1.076-6.483a2.039 2.039 0 0 0-.856-.238c-.22 0-.444.03-.674.09-1.129.317-2.09 1.36-2.878 3.132-.69 1.59-1.039 3.188-1.039 4.789 0 .171.006.34.017.51.084 1.276.46 1.913 1.129 1.913.34 0 .752-.171 1.238-.511.57-.401 1.025-.818 1.364-1.256l.003.003Z"/><path fill="#2E3191" d="M20.487 90.553c0 .353-.056 1.113-.169 2.28-.35 3.454-.525 5.6-.525 6.44 0 .562.115 1.083.348 1.568.34.729.798 1.094 1.37 1.094.121 0 .25-.011.385-.037.354-.084.865-.37 1.536-.858.657-.485 1.188-.729 1.589-.729.171 0 .34.062.51.182.34.244.512.567.512.968-.048.62-.53 1.276-1.443 1.971-1.12.78-2.297 1.167-3.527 1.167-1.035 0-1.898-.359-2.582-1.077-1.03-1.094-1.545-2.835-1.545-5.219 0-.816.166-2.408.494-4.78.146-1.108.25-1.921.312-2.445.011-.11.023-.22.037-.329.193-1.216.685-1.825 1.48-1.825.131 0 .263.011.395.036.553.135.828.665.828 1.588l-.005.005Zm-2.047-4.78c0-.22.048-.427.146-.62.244-.474.64-.713 1.188-.713.218 0 .426.048.62.146.475.244.713.64.713 1.186 0 .22-.048.427-.146.62-.244.474-.64.712-1.188.712-.218 0-.426-.047-.62-.146-.474-.243-.713-.639-.713-1.186Z"/><path fill="#2E3191" d="M27.727 89.238c.848.011 1.286.5 1.309 1.458 0 .197-.065.69-.194 1.478-.455 2.768-.685 4.772-.685 6.015 0 2.425.665 3.651 1.996 3.676.854 0 1.696-.39 2.527-1.169 1.087-.999 1.99-2.395 2.71-4.187a5.237 5.237 0 0 1-1.463-.457c-1.387-.681-2.084-1.85-2.084-3.505 0-.805.298-1.503.89-2.1.666-.67 1.452-1.004 2.353-1.004.901 0 1.643.238 2.297.712.864.645 1.294 1.517 1.294 2.614 0 .072-.011.384-.036.93.207-.095.468-.238.786-.428.463-.287.853-.43 1.168-.43.17 0 .334.048.494.146.413.23.62.575.62 1.035 0 .277-.104.55-.311.819-.562.678-1.674 1.186-3.344 1.525-.5 1.727-1.224 3.27-2.173 4.632-1.719 2.468-3.746 3.702-6.084 3.702-1.168-.012-2.126-.469-2.87-1.369-1.01-1.29-1.516-3.252-1.516-5.894a26.4 26.4 0 0 1 .657-5.855.33.33 0 0 1 .017-.092c.345-1.472.89-2.22 1.631-2.243l.011-.009Zm7.575 2.773c-.12 0-.25.023-.384.073-.39.143-.584.407-.584.788.01.682.59 1.077 1.735 1.184.061-.275.092-.561.092-.861 0-.07-.005-.149-.016-.233-.073-.634-.354-.95-.84-.95h-.003Z"/><path fill="#2E3191" d="M40.291 99.108c0-.412.025-.852.073-1.312.256-2.08.913-3.929 1.974-5.547 1.291-1.982 2.844-2.975 4.658-2.975.485 0 .954.062 1.406.183 1.609.465 2.412 1.598 2.412 3.407 0 .134-.006.274-.017.42-.12 1.635-.85 3.009-2.187 4.12-1.311 1.099-2.836 1.648-4.574 1.648-.328 0-.651-.03-.965-.093a5.69 5.69 0 0 0-.037.758c0 .698.12 1.239.365 1.623.328.494 1.002.782 2.021.867.45 0 .893-.048 1.331-.143.764-.18 1.67-.609 2.715-1.282.682-.446 1.163-.667 1.443-.667a.99.99 0 0 1 .495.146c.39.23.583.563.583.998 0 .146-.03.303-.092.471-.329.788-1.314 1.531-2.96 2.232-1.521.653-2.86.981-4.017.981-.438 0-.848-.036-1.224-.109-2.266-.463-3.397-2.372-3.397-5.729l-.006.003Zm5.87-7.002c-1.103.75-1.97 2.17-2.602 4.265.303.073.595.11.873.11 1.008 0 1.887-.311 2.64-.937.836-.687 1.254-1.5 1.254-2.445 0-.945-.297-1.422-.892-1.433-.424.011-.851.16-1.275.44h.003Zm14.591 12.585c-2.933-.12-5.11-1.909-6.522-5.364-1.047-2.602-1.572-5.79-1.572-9.559 0-.193.011-.443.037-.748.171-2.566.645-4.918 1.423-7.06 1.266-3.455 3.058-5.183 5.371-5.183.12 0 .25.006.385.02 2.105.132 3.161 1.354 3.161 3.665 0 2.518-1.084 5.313-3.251 8.39-1.376 1.957-2.819 3.544-4.33 4.76.413 2.314.87 4.047 1.37 5.205.927 2.142 2.303 3.213 4.13 3.213.121 0 .25-.011.385-.036.402-.073.963-.365 1.682-.878.694-.474 1.235-.712 1.626-.712.17 0 .334.056.494.165.353.244.53.573.53.985-.025.633-.474 1.284-1.35 1.951-1.095.791-2.283 1.186-3.563 1.186h-.006Zm-1.24-25.177c-.72.011-1.35.323-1.901.931-1.387 1.57-2.15 4.851-2.283 9.842a22.98 22.98 0 0 0 2.193-2.63c2.021-2.762 3.032-5.095 3.032-6.993 0-.098-.025-.213-.073-.348-.194-.535-.516-.805-.968-.805v.003Z"/><path fill="#2E3191" d="M68.356 89.367c.426.011.828.056 1.204.13 1.876.4 3.027 1.861 3.453 4.38.23-.135.615-.385 1.151-.75.73-.499 1.286-.748 1.663-.748.182 0 .359.056.53.165.376.244.567.572.567.984-.01.415-.28.87-.803 1.369-.74.681-1.704 1.259-2.886 1.733-.011 1.898-.297 3.502-.859 4.817-.912 2.139-2.412 3.211-4.492 3.211-.744 0-1.485-.239-2.23-.713-1.718-1.13-2.574-3.168-2.574-6.112 0-1.775.298-3.393.896-4.854.937-2.3 2.397-3.502 4.385-3.612h-.005Zm2.319 7.736a7.903 7.903 0 0 1-1.35-.145c-1.61-.34-2.643-1.192-3.106-2.555-.317 1.018-.474 2.128-.474 3.331 0 .584.056 1.147.165 1.694.34 1.663 1.084 2.493 2.23 2.493a1.65 1.65 0 0 0 1.021-.345c.89-.679 1.396-2.17 1.516-4.472h-.002Zm-.312-2.481h.255c-.182-1.666-.62-2.507-1.313-2.518a.945.945 0 0 0-.183.017c-.267.098-.401.297-.401.603 0 .266.042.53.129.785.266.743.772 1.113 1.516 1.113h-.003Z"/><path fill="#2E3191" d="M78.629 89.238c.848.011 1.286.5 1.308 1.458 0 .197-.064.69-.194 1.478-.454 2.768-.685 4.772-.685 6.015 0 2.425.666 3.651 1.997 3.676.853 0 1.695-.39 2.526-1.169 1.087-.999 1.991-2.395 2.71-4.187a5.237 5.237 0 0 1-1.463-.457c-1.387-.681-2.083-1.85-2.083-3.505 0-.805.295-1.503.89-2.1.665-.67 1.451-1.004 2.353-1.004.9 0 1.642.238 2.296.712.865.645 1.294 1.517 1.294 2.614 0 .072-.01.384-.036.93.208-.095.469-.238.786-.428.463-.287.854-.43 1.168-.43.171 0 .334.048.494.146.413.23.62.575.62 1.035 0 .277-.103.55-.31.819-.562.678-1.674 1.186-3.345 1.525-.5 1.727-1.224 3.27-2.173 4.632-1.718 2.468-3.745 3.702-6.084 3.702-1.168-.012-2.125-.469-2.866-1.369-1.011-1.29-1.517-3.252-1.517-5.894a26.4 26.4 0 0 1 .657-5.855.33.33 0 0 1 .017-.092c.346-1.472.89-2.22 1.632-2.243l.008-.009Zm7.575 2.773c-.12 0-.25.023-.385.073-.39.143-.584.407-.584.788.011.682.59 1.077 1.735 1.184.062-.275.093-.561.093-.861 0-.07-.006-.149-.017-.233-.073-.634-.354-.95-.84-.95h-.002Z"/><path fill="#2E3191" d="M91.193 99.108c0-.412.026-.852.073-1.312.256-2.08.913-3.929 1.974-5.547 1.292-1.982 2.844-2.975 4.658-2.975.486 0 .957.062 1.407.183 1.608.465 2.411 1.598 2.411 3.407 0 .134-.005.274-.019.42-.121 1.635-.851 3.009-2.188 4.12-1.31 1.099-2.835 1.648-4.573 1.648a5.01 5.01 0 0 1-.966-.093 5.9 5.9 0 0 0-.036.758c0 .698.12 1.239.365 1.623.328.494 1.002.782 2.021.867.45 0 .893-.048 1.33-.143.764-.18 1.671-.609 2.716-1.282.682-.446 1.162-.667 1.443-.667.157 0 .323.047.494.146.39.23.584.563.584.998 0 .146-.031.303-.093.471-.328.788-1.314 1.531-2.959 2.232-1.522.653-2.86.981-4.017.981-.439 0-.848-.036-1.225-.109-2.265-.463-3.397-2.372-3.397-5.729l-.003.003Zm5.871-7.002c-1.103.75-1.97 2.17-2.603 4.265.304.073.596.11.874.11 1.008 0 1.886-.311 2.639-.937.836-.687 1.255-1.5 1.255-2.445 0-.945-.298-1.422-.893-1.433-.424.011-.85.16-1.275.44h.003Z"/></svg>