<svg xmlns="http://www.w3.org/2000/svg" width="138" height="117" fill="none" viewBox="0 0 138 117"><path fill="#3ECBCE" fill-rule="evenodd" d="M43.182 38.077c-3.266 1.409-5.619.069-9.041-1.03a71.58 71.58 0 0 1-3.95-1.392V14.644c0-5.358 2.665-9.956 7.32-12.635 4.657-2.678 9.987-2.679 14.644 0L76.32 15.911l24.167 13.902c4.657 2.678 7.322 7.278 7.321 12.634.001.231-.005.46-.014.69-3.794-.251-6.687-.901-8.484-2.96-1.375-1.468-13.98-12.775-15.357-11.05-.852 1.068 5.507 5.032 4.8 6.083-.535.797-9.523-5.55-10.59-4.05-1.335 1.878 8.75 5.685 8.238 6.858-.505 1.156-11.675-5.119-12.527-2.47-.72 2.236 11.247 4.71 10.796 5.99-.394 1.116-11.546-3.564-12.09-.82-.368 1.855 6.504 2.607 10.619 3.95 2.065.672 7.263 3.92 3.23 5.473-1.197.46-8.131 1.848-7.5 3.486.526 1.365 4.266 1.005 7.445.388 3.327-.644 5.29-1.56 7.969-2.717 2.695-1.164 4.64-.058 7.467.85a59.23 59.23 0 0 1 1.772.598 15.25 15.25 0 0 1-3.094 2.336L76.322 68.984 52.155 82.886c-4.656 2.678-9.986 2.678-14.642 0-4.657-2.678-7.323-7.278-7.322-12.635V48.304c2.996.47 5.354 1.38 6.975 3.236 1.664 1.777 16.926 15.468 18.593 13.38 1.032-1.293-6.429-6.341-5.81-7.366.679-1.126 11.53 6.72 12.821 4.904 1.617-2.274-10.747-6.74-9.974-8.303.46-.928 14.135 6.197 15.167 2.992.871-2.708-13.768-5.52-13.071-7.254.43-1.07 13.979 4.315 14.638.991.446-2.244-7.874-3.154-12.857-4.779-2.501-.815-8.793-4.747-3.912-6.627 1.45-.558 9.847-2.238 9.081-4.222-.636-1.652-5.164-1.216-9.013-.47-4.028.78-6.404 1.89-9.648 3.292" clip-rule="evenodd"/><path fill="#15164F" d="m128.786 108.83-3.354 8.169h4.275L138 96.649h-4.121l-3.045 7.786-3.405-7.787h-4.402l5.759 12.182Zm-6.123-1.929a3.538 3.538 0 0 1-.921.102c-1.561 0-2.38-.612-2.38-2.168v-4.743h3.378v-3.443h-3.378v-4.258h-3.942c0 6.158-.051 5.968-.051 12.929 0 3.188 1.869 5.126 5.426 5.126a6.35 6.35 0 0 0 1.869-.255v-3.29h-.001Zm-9.934 3.366V96.649h-4.019v13.618h4.019Zm-2.048-20.835c-1.331 0-2.457 1.122-2.457 2.473 0 1.351 1.126 2.448 2.457 2.448 1.408 0 2.508-1.096 2.508-2.448 0-1.352-1.1-2.473-2.508-2.473Zm-4.331 20.835V101.8c0-1.53-.41-2.805-1.255-3.85-.819-1.046-2.047-1.556-3.685-1.556-.589 0-1.305.025-2.509.714a3.561 3.561 0 0 0-1.356 1.326h-.026v-1.786h-3.967v13.618h3.993v-7.548c0-1.505.845-2.652 2.457-2.652 1.613 0 2.381 1.046 2.381 2.652v7.548h3.967v.001ZM78.266 96.649v8.543c0 1.504.435 2.78 1.28 3.825.87 1.02 2.124 1.53 3.736 1.53 1.613 0 2.919-.663 3.814-1.963h.026v1.683h3.941V96.649H87.07v7.6c0 1.504-.844 2.601-2.457 2.601-1.612 0-2.354-.995-2.354-2.601v-7.6h-3.994.001Zm-8.452 3.417c1.485 0 2.228.867 2.228 2.601v7.6h3.993v-8.492c0-3.29-1.613-5.433-4.812-5.433-1.92 0-3.2.663-4.53 2.168-.769-1.454-2.1-2.168-3.993-2.168-1.639 0-3.251.766-3.994 2.092h-.05v-1.786h-3.917v13.618h3.994v-7.548c0-1.607.819-2.652 2.43-2.652 1.485 0 2.227.892 2.227 2.652v7.548h3.968v-7.6c0-1.606.896-2.601 2.457-2.601v.001Zm-23.655 0c1.484 0 2.226.867 2.226 2.601v7.6h3.994v-8.492c0-3.29-1.613-5.433-4.812-5.433-1.92 0-3.2.663-4.53 2.168-.769-1.454-2.1-2.168-3.994-2.168-1.638 0-3.25.766-3.993 2.092H35v-1.786h-3.917v13.618h3.993v-7.548c0-1.607.82-2.652 2.432-2.652 1.484 0 2.226.892 2.226 2.652v7.548h3.968v-7.6c0-1.606.896-2.601 2.457-2.601v.001Zm-27.546 3.366c0-.994.332-1.836.973-2.473.64-.663 1.433-.995 2.38-.995.947 0 1.766.331 2.406.995.64.638.973 1.479.973 2.473 0 2.041-1.434 3.494-3.353 3.494-.947 0-1.766-.331-2.406-.969-.64-.663-.973-1.504-.973-2.525Zm-4.095.051c0 2.041.716 3.723 2.15 5.075 1.433 1.352 3.2 2.015 5.298 2.015 2.1 0 3.84-.688 5.299-2.04 1.459-1.377 2.175-3.086 2.175-5.126 0-2.04-.716-3.672-2.15-5.024-1.433-1.352-3.2-2.04-5.273-2.04-2.073 0-3.865.688-5.324 2.065-1.459 1.352-2.175 3.06-2.175 5.075Zm-7.172 7.09c3.046 0 5.528-1.454 6.578-4.234l-3.532-1.453c-.59 1.351-1.587 2.014-3.02 2.014-1.946 0-3.277-1.428-3.277-3.468s1.434-3.443 3.276-3.443c1.357 0 2.355.663 2.944 2.015l3.506-1.454c-.896-2.678-3.404-4.208-6.45-4.208-2.048 0-3.788.689-5.221 2.066C.716 99.786 0 101.468 0 103.483s.69 3.723 2.073 5.075c1.383 1.352 3.149 2.015 5.273 2.015Z"/></svg>