<svg xmlns="http://www.w3.org/2000/svg" width="163" height="120" fill="none" viewBox="0 0 163 120"><path fill="#1A1A1A" d="M46.452 111.931v7.281H48.1v-2.08h1.448c1.855 0 2.912-.979 2.912-2.678 0-1.699-1.057-2.531-2.912-2.531H46.46l-.009.008Zm1.647 1.361h1.361c.919 0 1.439.408 1.439 1.222 0 .815-.52 1.249-1.439 1.249H48.1v-2.471Zm10.723.321h-1.604v5.599h1.604v-2.695c0-.954.71-1.561 1.855-1.457v-1.508c-.833.018-1.465.39-1.855 1.075v-1.014Zm8.876-.052c-1.708 0-2.878 1.144-2.878 2.869 0 1.725 1.135 2.834 2.921 2.834 1.006 0 1.83-.364 2.392-.988l-.84-.849c-.39.381-.885.589-1.413.589-.72 0-1.257-.416-1.448-1.127h4.013c.14-2.037-.78-3.337-2.747-3.337v.009Zm-1.3 2.392c.12-.745.606-1.213 1.308-1.213.703 0 1.214.476 1.24 1.213h-2.549Zm16.26-2.401c-.944.018-1.655.425-2.019 1.292-.268-.815-.945-1.292-1.89-1.292-.84.018-1.499.347-1.889 1.032v-.971h-1.604v5.599h1.604v-2.765c0-.814.468-1.413 1.248-1.421.659 0 1.075.425 1.075 1.144v3.051h1.595v-2.765c0-.815.468-1.413 1.24-1.422.667 0 1.083.425 1.083 1.145v3.051h1.595v-3.519c0-1.309-.78-2.141-2.02-2.141l-.017-.018Zm7.95-2.418c-.512 0-.867.373-.867.893s.355.892.867.892c.511 0 .866-.372.866-.892s-.355-.893-.866-.893Zm.797 8.078v-5.599h-1.603v5.599h1.603Zm10.601-5.599h-1.595v2.765c0 .815-.468 1.413-1.24 1.43-.64 0-1.048-.424-1.048-1.135v-3.06h-1.604v3.519c0 1.318.78 2.141 2.02 2.141.84 0 1.491-.347 1.872-1.049v.988h1.595v-5.599Zm12.699-.061c-.945.018-1.656.425-2.02 1.292-.268-.815-.944-1.292-1.889-1.292-.841.018-1.5.347-1.89 1.032v-.971h-1.604v5.599h1.604v-2.765c0-.814.468-1.413 1.248-1.421.659 0 1.075.425 1.075 1.144v3.051h1.595v-2.765c0-.815.468-1.413 1.24-1.422.667 0 1.083.425 1.083 1.145v3.051h1.595v-3.519c0-1.309-.78-2.141-2.02-2.141l-.017-.018Zm-90.357-53.17V59.16h-4.984v6.545h5.088v-1.223h-3.606v-1.447h3.164v-1.222h-3.164V60.39h3.511l-.009-.009Zm5.496-1.291c-1.517 0-2.531.754-2.531 1.933 0 2.314 3.485 1.595 3.485 2.834 0 .408-.364.624-.971.624-.694 0-1.647-.381-2.323-.98l-.59 1.206c.737.624 1.812 1.031 2.887 1.031 1.447 0 2.566-.684 2.566-1.967 0-2.358-3.476-1.682-3.476-2.887 0-.355.338-.529.832-.529.52 0 1.343.26 2.037.676l.572-1.222c-.659-.425-1.57-.71-2.488-.71v-.01Zm10.228 1.317v-1.257h-5.47v1.257h1.995v5.297h1.473v-5.297h2.002Zm2.636-1.257v6.545h2.721c2.063 0 3.494-1.344 3.494-3.277s-1.413-3.267-3.442-3.267H42.7h.009ZM44.19 60.4h1.274c1.127 0 1.968.832 1.968 2.037s-.806 2.02-1.899 2.02H44.2V60.4h-.01Zm73.463-1.3c-.911 0-1.777.364-2.575.97l.572 1.101c.581-.502 1.24-.823 1.786-.823s.858.242.858.659c0 .312-.286.771-.685 1.187l-2.366 2.505v1.006h4.819v-1.231h-2.895l1.448-1.517c.711-.728 1.222-1.465 1.222-2.167 0-1.032-.91-1.69-2.184-1.69Zm7.784.017c-1.855 0-2.861 1.179-2.861 3.311 0 2.133 1.006 3.329 2.861 3.329 1.855 0 2.851-1.188 2.851-3.329 0-2.14-1.022-3.311-2.851-3.311Zm0 1.127c.918 0 1.334.65 1.334 2.175 0 1.526-.424 2.202-1.334 2.202-.911 0-1.344-.65-1.344-2.201 0-1.552.416-2.176 1.344-2.176Zm7.818-1.144c-.91 0-1.777.364-2.574.97l.572 1.101c.581-.502 1.239-.823 1.785-.823.547 0 .859.242.859.659 0 .312-.278.771-.685 1.187l-2.367 2.505v1.006h4.82v-1.231h-2.895l1.447-1.517c.711-.728 1.223-1.465 1.223-2.167 0-1.032-.911-1.69-2.185-1.69Zm7.784.017c-1.855 0-2.86 1.179-2.86 3.311 0 2.133 1.005 3.329 2.86 3.329s2.852-1.188 2.852-3.329c0-2.14-1.023-3.311-2.852-3.311Zm0 1.127c.919 0 1.335.65 1.335 2.175 0 1.526-.416 2.202-1.335 2.202s-1.343-.65-1.343-2.201c0-1.552.416-2.176 1.343-2.176Z"/><path fill="#1A1A1A" fill-rule="evenodd" d="M76.565 53.101c-3.233 1.17-3.944 1.543-6.397 4.195-1.248 1.353-4.369 5.054-7.854 8.842h39.865v-50.18c1.474-1.569 3.502-3.086 3.502-3.086s-.329 0-3.502 1.604c-2.522 1.205-3.19 1.89-5.105 4.325-.295.382-.59.702-.876.988-.563.555-1.118.971-1.725 1.387-1.326.902-2.886 1.777-5.244 4.005-4.013 3.78-4.005 3.164-4.3 2.782-.294-.372-.069-.814 1.63-2.678 1.7-1.864 2.47-3.164 2.176-3.39-.286-.233-.32-.25-3.875 2.957-3.554 3.207-4.741 3.18-5.157 2.773-.416-.407 1.179-2.193 2.886-3.675 1.7-1.482 3.311-3.354 3.086-3.545-.217-.182-.771.234-3.554 2.912-2.782 2.679-4.195 3.233-4.785 2.575-.598-.66.755-1.881 3.242-4.022 2.497-2.133 4.222-3.502 3.979-3.806-.243-.294-4.464 2.974-5.834 4.083-1.37 1.11-2.201.208-2.383-.338-.174-.511 1.993-2.687 4.602-4.75.191-.156.39-.303.581-.45 2.87-2.194 5.738-4.092 5.886-4.482.147-.39-1.266-.746-2.93-1.31-1.664-.563-2.055-2.392-1.768-2.938.286-.537 1.352.226 2.236.728.494.278 1.569.365 2.54.373.771 0 1.473-.043 1.75-.078.634-.087 3.65 1.474 5.973 1.205.78-.087 3.58-1.76 6.952-3.944V0H62.254v52.07c-2.09 2.513-4.768 5.47-4.768 5.47s1.63-.894 4.768-3.052c3.45-2.748 6.267-5.132 6.622-5.895.364-.788.529-1.75.598-2.67.113-1.56-.026-3.024.148-3.38.277-.572 1.283-3.164 1.083-4.16-.2-.997-.59-2.246.018-2.35.606-.104 2.219.841 2.227 2.6.009 1.76-.095 3.208.321 3.19.416-.017 3.12-2.14 6.111-4.169 2.982-2.028 6.12-3.632 6.58-3.276.459.346 1.057 1.421-.426 2.366-1.49.954-5.92 3.918-5.712 4.248.208.329 2.046-.876 4.863-2.566 2.817-1.69 4.403-2.583 4.837-1.812.442.772-.538 1.933-3.953 3.728-3.415 1.794-3.996 2.193-3.883 2.453.104.268 2.392-.668 4.334-1.812 1.941-1.144 4.143-2.098 4.395-1.578.25.53-.096 1.656-4.265 4.014-4.16 2.357-4.152 2.392-4.03 2.739.13.346 1.603.026 3.909-.997 2.305-1.023 2.79-1.1 3.06-.702.26.399.858.59-3.997 3.198a28.752 28.752 0 0 0-4.49 2.956c-1.309 1.032-2.245 1.83-4.04 2.48v.008Z" clip-rule="evenodd"/><path fill="#1A1A1A" d="M4.256 90.512v9.475H.884V77.614h3.372v9.5H8.33v-9.5h3.372v22.373H8.33v-9.475H4.256Zm11.225 9.475V77.588h9.604v3.398h-6.24v6.111h4.55v3.39h-4.55v6.11h6.24v3.39h-9.604Zm21.887 0h-9.197V77.614h3.372v19h5.825v3.373Zm8.4-22.373c1.638 0 2.955.52 3.926 1.552.901.988 1.36 2.254 1.36 3.788v3.25c0 1.474-.51 2.74-1.542 3.788-1.032 1.05-2.28 1.57-3.745 1.57h-1.95v8.425h-3.372V77.614h5.322Zm2.02 5.392c0-.59-.174-1.058-.53-1.413-.355-.356-.823-.538-1.404-.538h-2.037v7.16h2.037c.538 0 .997-.19 1.37-.572.372-.381.563-.84.563-1.378v-3.268.009Zm10.089 16.98h-3.372V77.615h3.372v22.373Zm7.576-22.398 4.481 15.03v-15.03h3.372v22.399h-3.623L65.037 85.65v14.337h-3.372V77.588h3.788Zm16.92 22.676c-1.491 0-2.748-.52-3.788-1.569-1.04-1.049-1.56-2.306-1.56-3.77V82.72c0-1.491.52-2.757 1.569-3.788 1.04-1.04 2.305-1.56 3.779-1.56 1.474 0 2.748.52 3.78 1.568 1.03 1.05 1.55 2.306 1.55 3.788v2.558H84.21v-2.627c0-.529-.19-.997-.572-1.378a1.879 1.879 0 0 0-1.378-.572c-.537 0-.988.19-1.37.572-.372.381-.563.84-.563 1.378v12.24c0 .537.19.988.564 1.369.381.373.832.563 1.37.563a1.9 1.9 0 0 0 1.377-.563c.382-.373.572-.823.572-1.36v-4.396h-1.89v-3.398h5.384v7.81c0 1.491-.52 2.748-1.57 3.78-1.04 1.031-2.296 1.551-3.761 1.551v.009Zm12.404-9.752v9.475h-3.372V77.614h3.372v9.5h4.074v-9.5h3.372v22.373h-3.372v-9.475h-4.074Zm15.377 4.326-.823 5.157h-3.519l3.805-22.372h4.646l3.753 22.372h-3.545l-.789-5.157h-3.528Zm1.76-12.092-1.248 8.798h2.505l-1.257-8.798Zm13.479-5.158 4.481 15.03v-15.03h3.372v22.399h-3.623l-4.646-14.337v14.337h-3.372V77.588h3.788Zm22.234 17.042c0 1.473-.52 2.739-1.552 3.788-1.031 1.048-2.28 1.569-3.753 1.569h-5.305V77.588h5.305c1.473 0 2.73.52 3.762 1.57 1.031 1.048 1.543 2.305 1.543 3.77V94.63Zm-7.238 2.01h2.037c.537 0 .988-.19 1.361-.58.372-.381.554-.84.554-1.37V82.98c0-.538-.19-.997-.563-1.379a1.822 1.822 0 0 0-1.352-.572h-2.037v15.612Zm21.921-2.218c.026 1.56-.381 2.895-1.213 3.996-.546.754-1.318 1.274-2.323 1.586-.538.165-1.162.251-1.872.251-1.327 0-2.419-.33-3.286-.988-.728-.537-1.3-1.265-1.725-2.184-.424-.928-.667-1.985-.745-3.173l3.207-.234c.147 1.3.494 2.245 1.032 2.835.407.442.875.65 1.395.624.737-.026 1.326-.382 1.76-1.092.225-.347.338-.841.338-1.483 0-.927-.425-1.855-1.266-2.765-.667-.624-1.664-1.577-2.999-2.843-1.118-1.083-1.907-2.054-2.375-2.912a6.679 6.679 0 0 1-.754-3.138c0-2.037.685-3.58 2.054-4.629.85-.633 1.89-.945 3.147-.945s2.236.269 3.086.806c.667.416 1.205.997 1.621 1.751.407.746.658 1.612.745 2.583l-3.242.59c-.095-.91-.364-1.621-.789-2.133-.312-.364-.754-.546-1.343-.546-.624 0-1.092.269-1.413.824-.26.442-.39.988-.39 1.638 0 1.023.442 2.063 1.326 3.12.338.408.841.885 1.508 1.43.789.66 1.309 1.119 1.561 1.38.832.831 1.482 1.655 1.933 2.46.216.382.39.738.52 1.058.32.798.494 1.509.502 2.141v-.008Z"/></svg>