<svg xmlns="http://www.w3.org/2000/svg" width="240" height="117" viewBox="0 0 240 117"><path fill="#43B3E6" d="M61.073 106.896c2.918-3.267 5.433-7.308 7.278-12.259 1.073-2.896 3.052-6.635 5.366-10.474-3.723-3.065-7.848-5.288-12.208-6.904-1.677 9.7-1.476 20.375-.436 29.637Z"/><path fill="#3AB44A" d="M22.974 109.288c-5.668-6.433-6.138-17.412 1.61-20.41 1.308-.505 2.515-.673 3.655-.606-2.046-3.2-4.125-6.365-6.338-9.463-5.199 2.054-10.095 4.782-14.388 8.015.47 2.998.905 5.961 1.308 8.69 1.744 11.349 11.436 19.23 22.705 21.318-2.75-1.987-5.97-4.614-8.552-7.578v.034Z"/><path fill="#4CA2D9" d="M61.51 77.259c-8.452-3.099-17.742-3.537-26.764-2.021-2.013 4.31-4.193 8.622-6.406 13.034 5.4.37 8.753 5.96 8.921 6.298.235-.37 5.131-8.656 12.711-5.692 7.747 2.997 7.278 13.977 1.61 20.409-2.683 3.031-5.97 5.692-8.754 7.713 6.641-1.112 13.08-4.345 18.245-10.104-1.04-9.262-1.24-19.938.436-29.637Z"/><path fill="#43B3E6" d="M28.206 88.272h.134c2.247-4.412 4.427-8.723 6.406-13.034-4.394.741-8.72 1.92-12.879 3.57a257.908 257.908 0 0 1 6.339 9.464Z"/><path fill="#4CA2D9" d="M59.632 16.603c.067-3.57-.336-10.204-4.763-10.406-3.186-.135-5.165 5.826-5.4 9.969 0 .606-.134 1.75-.268 3.266 3.958.135 7.312-1.044 10.43-2.829Z"/><path fill="#3AB44A" d="M49.201 19.433c-.235 2.459-.57 5.86-.973 9.565 3.354 2.223 6.977 4.041 10.733 5.523a846.77 846.77 0 0 1 .637-16.334c0-.404.034-.943.067-1.617-3.119 1.785-6.473 2.964-10.43 2.83l-.034.033Z"/><path fill="#8DC63F" d="M42.594 24.72c-.134-4.883-.235-9.026-.268-10.912C42.09 6.433 41.186 0 37.228 0s-4.964 4.984-5.3 11.316c2.75 5.153 6.406 9.632 10.7 13.37l-.034.034Z"/><path fill="#FCCE17" d="M42.594 24.72c-4.293-3.772-7.949-8.251-10.699-13.37-.1 1.818-.134 3.738-.134 5.691 0 5.726-.704 22.228-1.207 30.951 3.823-2.02 7.982-3.772 12.442-5.355-.134-5.355-.268-12.158-.436-17.917h.034Z"/><path fill="#F78E22" d="M30.587 47.992c-.167 2.863-.302 4.884-.369 5.456-.335 2.257-.268 3.435-1.542 3.435-1.14 0-1.577-2.761-2.013-6.634-6.338 3.906-11.772 8.689-16.534 14.818 4.326 3.907 8.183 8.656 11.805 13.741 4.126-1.65 8.486-2.829 12.88-3.57 3.688-7.948 6.74-15.93 8.484-24.686-.033-1.583-.1-4.48-.201-7.949-4.494 1.583-8.62 3.335-12.443 5.355l-.067.034Z"/><path fill="#FCB440" d="M26.63 50.248c-.034-.37-.101-.74-.134-1.145-.235-2.155-.839-7.712-1.476-13.404a37.22 37.22 0 0 1-9.928 7.208c.034 6.163 0 11.652 0 13.067-.134 3.098-2.079 6.331-3.555.91-1.006-3.706-1.509-7.343-2.28-11.62a35.621 35.621 0 0 1-7.815 1.482c.671 4.344 1.342 8.756 2.013 13.27 2.347 1.448 4.56 3.165 6.64 5.085 4.763-6.13 10.196-10.912 16.535-14.819v-.034Z"/><path fill="#9559A4" d="M7.949 38.899c-.772-3.402-3.22-8.285-6.138-7.14-2.549 1.01-2.046 4.176-.838 12.023.134.977.302 1.987.436 2.964a36.39 36.39 0 0 0 7.814-1.482A112.52 112.52 0 0 0 7.95 38.9Z"/><path fill="#F78E22" d="M23.376 20.645c-.604-5.32-2.18-9.261-4.796-9.261-2.348 0-4.192 2.425-4.092 9.194a63.149 63.149 0 0 0 9.056 1.347c-.067-.505-.101-.943-.134-1.28h-.034Z"/><path fill="#43B3E6" d="M14.455 20.578c0 .876.034 1.819.134 2.83.302 3.704.436 12.123.503 19.5A38.314 38.314 0 0 0 25.02 35.7a2319.59 2319.59 0 0 0-1.51-13.775c-3.018-.236-6.07-.707-9.055-1.347Z"/><path fill="#EE3F34" d="M58.96 34.555c-3.79-1.482-7.378-3.301-10.732-5.524-.973 8.959-2.147 19.669-2.482 22.936 4.293-.102 8.586-.876 12.879-2.122.067-4.783.167-9.97.335-15.257v-.033Z"/><path fill="#FCCE17" d="M60.738 73.487c-1.61 1.044-1.61-.775-1.61-.775-.536-2.391-.67-11.484-.503-22.902-4.293 1.247-8.586 2.021-12.879 2.122-.033.337-.067.64-.067.809-.235 2.761-2.314 2.425-2.415-1.145v-1.044c-1.71 8.756-4.796 16.738-8.485 24.686 9.022-1.55 18.312-1.078 26.764 2.02.302-1.717.67-3.367 1.073-5.017-.637.471-1.274.909-1.844 1.212l-.034.034Z"/><path fill="#E4E323" d="M3.455 59.981C4.06 64.057 4.696 68.098 5.3 72.14a81.348 81.348 0 0 1 4.83-7.072c-2.114-1.92-4.327-3.637-6.641-5.086h-.034Z"/><path fill="#8DC63F" d="M10.095 65.067a81.34 81.34 0 0 0-4.83 7.073c.772 5.052 1.51 10.036 2.214 14.718 4.327-3.267 9.223-5.962 14.388-8.016-3.588-5.085-7.479-9.834-11.805-13.74l.033-.035Z"/><path fill="#9559A4" d="M73.718 84.163c4.56-7.611 10.43-15.694 13.314-18.557 3.924-3.94 1.879-8.588-6.607-6.062-6.909 2.054-13.046 9.16-17.842 12.697-.436 1.65-.771 3.3-1.073 5.018 4.36 1.583 8.485 3.84 12.208 6.904Z"/><path fill="#8DC63F" d="M99.807 33.274V50.72H95.95V33.274h3.857Zm6.003 0c.671 1.112 1.409 2.661 2.147 4.614v-4.614h3.823V50.72h-3.823v-3.435c0-2.964-.638-5.692-1.878-8.15V50.72h-3.857V33.274h3.588Zm7.58 0h8.317v3.2h-2.247V50.72h-3.856V36.474h-2.248v-3.2h.034Zm9.894 0h7.848v3.335h-3.991v2.963h3.823v3.3h-3.823v4.547h4.159v3.335h-8.016v-17.48Zm14.992 0c3.421 0 4.494 1.516 4.494 5.254 0 1.954-.503 3.132-1.241 3.537l1.442 8.655h-4.024l-1.007-7.88h-.939v7.88h-3.856V33.274h5.131Zm-.805 6.602c1.207 0 1.476-.405 1.476-1.853 0-1.212-.369-1.718-1.342-1.718h-.771v3.537h.637v.034Zm10.799-6.602c.671 1.112 1.409 2.661 2.147 4.614v-4.614h3.823V50.72h-3.823v-3.435c0-2.964-.638-5.692-1.878-8.15V50.72h-3.857V33.274h3.588Zm7.982 14.044c0-5.995.772-10.541 3.052-14.01h3.421c2.281 3.502 3.052 8.083 3.052 14.01v3.435h-3.857v-2.896h-1.878v2.896h-3.823v-3.435h.033Zm5.702-2.728c-.034-3.368-.369-5.961-.939-7.679-.57 1.752-.872 4.311-.939 7.679h1.878Zm4.326-11.316h8.317v3.2h-2.247V50.72h-3.857V36.474h-2.247v-3.2h.034Zm13.75 0V50.72h-3.823V33.274h3.823Zm7.111-.202c3.723 0 4.83 1.853 4.83 5.86v6.197c0 4.008-1.107 5.86-4.83 5.86s-4.829-1.852-4.829-5.86v-6.197c0-4.007 1.106-5.86 4.829-5.86Zm-.939 13.068c0 1.044.067 1.549.939 1.549.872 0 .939-.505.939-1.65v-7.982c0-1.112-.067-1.65-.939-1.65-.872 0-.939.471-.939 1.515v8.251-.033Zm11.503-12.866c.705 1.112 1.443 2.661 2.18 4.614v-4.614h3.824V50.72h-3.824v-3.435c0-2.964-.637-5.692-1.878-8.15V50.72h-3.857V33.274h3.555Zm7.983 14.044c0-5.995.771-10.541 3.051-14.01h3.455c2.281 3.502 3.052 8.083 3.052 14.01v3.435h-3.857v-2.896h-1.878v2.896h-3.823v-3.435Zm5.701-2.728c-.034-3.368-.369-5.961-.939-7.679-.57 1.752-.906 4.311-.939 7.679h1.878Zm9.659-11.316V47.42h3.958v3.335h-7.815V33.308h3.857v-.034ZM102.557 83.726c3.119 0 4.494 1.414 4.494 4.68v8.05c0 3.334-1.341 4.715-4.494 4.715h-5.131V83.726h5.131Zm-1.308 14.145h.637c1.208 0 1.241-.472 1.241-1.65v-7.545c0-1.145-.067-1.65-1.241-1.65h-.637v10.845Zm7.614-.101c0-5.996.771-10.542 3.052-14.011h3.421c2.28 3.502 3.052 8.083 3.052 14.01v3.435h-3.857v-2.896h-1.879v2.896h-3.823v-3.435h.034Zm5.701-2.729c-.067-3.368-.369-5.961-.939-7.712-.57 1.751-.905 4.31-.939 7.712h1.878Zm3.823-10.945v-.37h3.823c.068 4.816.47 7.847.939 8.958.47-1.111.872-4.109.94-8.958h3.823v.842c0 4.277-1.04 8.42-2.851 11.652v4.951h-3.857v-4.95c-1.844-3.301-2.85-7.444-2.85-12.125h.033Z"/><path fill="#0E4C64" d="M101.215 62.44c0 5.085.101 9.194 1.275 12.427 1.174-3.3 1.308-7.342 1.308-12.427v-6.87h5.232v7.207c0 6.803-.671 12.124-3.723 16.67h-5.6c-3.053-4.546-3.724-9.901-3.724-16.67v-7.208h5.266v6.87h-.034Zm16.669-7.173c5.132 0 6.607 2.525 6.607 8.015v8.487c0 5.49-1.509 8.016-6.607 8.016-5.097 0-6.607-2.526-6.607-8.016v-8.487c0-5.49 1.51-8.015 6.607-8.015Zm-1.274 17.917c0 1.414.067 2.088 1.274 2.088 1.208 0 1.308-.708 1.308-2.257V62.07c0-1.55-.067-2.223-1.308-2.223s-1.274.64-1.274 2.054v11.283Zm16.131-17.614V74.9h5.433v4.548h-10.698V55.569h5.265Zm12.208 17.613c0 1.415.067 2.088 1.274 2.088 1.275 0 1.342-.774 1.342-2.525V55.569h5.265v16.2c0 5.456-1.509 8.015-6.573 8.015-5.065 0-6.54-2.56-6.54-8.015v-16.2h5.265v17.58l-.033.034Zm15.864-17.613c.939 1.549 1.945 3.637 2.951 6.297V55.57h5.232v23.879h-5.232v-4.682c0-4.041-.872-7.813-2.582-11.147v15.829h-5.266v-23.88h4.897Zm10.363 0h11.369v4.378h-3.052v19.5h-5.265v-19.5h-3.052v-4.379Zm13.55 0h10.732v4.546h-5.467v4.075h5.266v4.513h-5.266v6.23h5.702v4.547h-10.967V55.57Zm13.482 0h10.732v4.546h-5.466v4.075h5.265v4.513h-5.265v6.23h5.735v4.547h-10.967V55.603l-.034-.034Zm20.525 0c4.662 0 6.138 2.054 6.138 7.207 0 2.66-.671 4.277-1.71 4.816l1.945 11.855h-5.501L218.23 68.67h-1.274v10.778h-5.266V55.569h7.043Zm-1.073 9.059c1.644 0 2.013-.539 2.013-2.526 0-1.65-.504-2.324-1.845-2.324h-1.04v4.85h.872Zm17.742-2.66c0-1.482-.503-2.156-1.609-2.156-.805 0-1.375.472-1.375 1.28 0 1.28 1.911 2.627 4.863 4.984 2.314 1.82 3.052 3.806 3.052 6.736 0 4.614-2.214 6.904-6.607 6.904-4.629 0-6.641-2.189-6.641-6.904v-2.896h5.333v2.66c0 1.752.335 2.661 1.375 2.661.771 0 1.274-.64 1.274-1.785 0-1.953-.973-2.964-2.616-4.412-2.951-2.56-5.332-4.21-5.332-7.813 0-3.604 2.28-6.029 6.573-6.029 4.796 0 6.473 1.954 6.473 6.568v1.549h-4.796v-1.381l.033.034Z"/></svg>