<svg xmlns="http://www.w3.org/2000/svg" width="253" height="97" fill="none" viewBox="0 0 253 97"><path fill="#CB1524" fill-rule="evenodd" d="M40.13 47.769c.564.477.078.063.733.612 4.367 3.681 10.428 8.783 10.916 14.8v.003a7.737 7.737 0 0 1-1.848 5.666 7.808 7.808 0 0 1-5.33 2.721h-.005c-1.166.094-2.192-.023-3.111-.322a6.787 6.787 0 0 1-1.72-.839c-.46.432-.98.803-1.565 1.102-.861.44-1.856.72-3.027.814a7.828 7.828 0 0 1-5.698-1.838 7.75 7.75 0 0 1-2.737-5.307c-.142-1.738.191-3.478.829-5.18.606-1.626 1.492-3.22 2.502-4.736.07-.215.07-.375.015-.486-.054-.115-.178-.211-.359-.29-.262-.111-.612-.165-1.015-.153-1.113.04-2.515.588-3.728 1.807l-.049.046c-.09.078-.291.263-.498.45-.655.596-1.363 1.245-2.307 1.827-.61.378-1.285.71-2.22 1.099-.84.35-2.01.793-3.646 1.4l-.597.223c-3.088 1.147-7.443 2.758-9.727 3.943l-.046.028c-1.088.566-1.624.989-1.866 1.324a.532.532 0 0 0-.091.428c.03.16.071.29.139.362.07.076.206.136.443.172.381.058.915.036 1.692-.084.84-.13 1.953-.377 3.433-.767 1.167-.304 2.59-.706 4.021-1.107 2.173-.612 4.362-1.228 5.842-1.56 1.319-.293 2.09-.344 2.547-.266 1.089.19 1.244.79 1.177 1.472-.034.38-.177.779-.567 1.24-.288.345-.744.755-1.454 1.28-1.23.908-3.287 2.206-6.435 4.184l-.68.432a283.186 283.186 0 0 0-5.726 3.678c-1.881 1.255-3.615 2.483-4.75 3.466-1.013.88-1.473 1.488-1.625 1.931a.717.717 0 0 0 .06.621c.116.218.262.39.437.487.158.087.362.13.629.108.376-.023.841-.163 1.489-.455.702-.324 1.612-.827 2.82-1.567 1.625-.992 3.542-2.244 5.436-3.485a468.696 468.696 0 0 1 3.408-2.214c1.425-.915 2.662-1.678 3.694-2.257 1.086-.603 1.98-1.02 2.686-1.218.753-.212 1.353-.184 1.79-.01a1.494 1.494 0 0 1 .917.98c.09.336.066.698-.078 1.054-.184.462-.554.89-1.388 1.557-.725.579-1.81 1.37-3.527 2.603l-.146.106c-3.428 2.47-9.193 6.629-11.992 9.284-1.326 1.258-1.942 2.12-2.165 2.736-.134.371-.079.585.017.73a.805.805 0 0 0 .413.32c.225.084.504.094.813.046.338-.055.709-.184 1.215-.438.556-.278 1.262-.706 2.226-1.334a127.1 127.1 0 0 0 3.685-2.504 192.54 192.54 0 0 0 4.14-2.981c.726-.538 1.656-1.238 2.552-1.91 1.952-1.47 3.711-2.797 4.958-3.584.962-.606 1.665-.917 2.194-1.047.728-.181 1.213-.058 1.595.157.412.235.68.582.807.984.122.386.108.81-.03 1.224-.122.35-.31.67-.891 1.235-.462.44-1.231 1.104-2.576 2.206l-1.204.983c-2.705 2.209-6.605 5.386-8.738 7.564-1.161 1.186-1.762 2.03-2.017 2.646-.157.39-.149.61-.069.748.076.133.215.23.404.286.284.088.648.091 1.052.013.439-.085.915-.272 1.7-.737.886-.522 2.088-1.342 3.902-2.655.788-.573 1.977-1.445 3.256-2.39 3.509-2.58 7.798-5.735 11.116-7.907 2.196-1.434 3.952-2.432 5.298-3.035 1.625-.727 2.809-.923 3.563-.65 1.677.604 1.276 2.345.743 4.683-.046.19-.09.386-.197.875a37.425 37.425 0 0 0-.657 3.938c-.116 1.074-.159 2.121-.091 3.032.063.915.242 1.684.504 2.311.27.652.618 1.143 1.005 1.488.36.313.766.507 1.14.633.238.082.468.136.666.175.158-.908.464-2.67 1.146-5.292a97.73 97.73 0 0 1 1.37-4.737c.47-1.478.993-3.008 1.547-4.465.294-.772.599-1.52.898-2.263.846-2.1 1.67-4.139 2.254-6.634.388-1.68.678-3.594.915-5.624.234-2.019.418-4.191.606-6.363a.967.967 0 0 1 1.043-.884c.536.046.934.51.889 1.04-.184 2.167-.37 4.33-.612 6.428-.247 2.085-.544 4.067-.957 5.835-.612 2.637-1.463 4.749-2.34 6.92-.295.725-.59 1.458-.884 2.228a85.784 85.784 0 0 0-1.51 4.366 97.528 97.528 0 0 0-1.35 4.637c-.664 2.558-.963 4.314-1.115 5.192-.208 1.213-.819 1.74-1.832 1.581a8.087 8.087 0 0 1-1.357-.31 5.221 5.221 0 0 1-1.8-1.023c-.6-.528-1.126-1.258-1.514-2.194-.336-.814-.57-1.786-.649-2.908-.077-1.023-.024-2.181.1-3.364a39.38 39.38 0 0 1 .689-4.15l.202-.89c.319-1.387.556-2.425.489-2.449-.28-.1-.967.088-2.111.598-1.274.573-2.942 1.517-5.032 2.887-3.234 2.119-7.519 5.268-11.025 7.844a455.78 455.78 0 0 1-3.272 2.395c-1.895 1.373-3.141 2.227-4.048 2.76-1.008.596-1.67.849-2.317.972-.715.14-1.407.118-2.002-.066-.652-.202-1.184-.595-1.516-1.183-.34-.6-.468-1.366-.03-2.422.34-.827 1.067-1.88 2.417-3.259 2.199-2.244 6.154-5.47 8.902-7.708l1.2-.981c1.285-1.06 2.024-1.69 2.45-2.103.176-.165.274-.272.334-.347-.337.084-.84.317-1.614.806-1.191.754-2.917 2.052-4.831 3.494-.76.573-1.55 1.168-2.562 1.918a235.027 235.027 0 0 1-4.18 3.011 135.875 135.875 0 0 1-3.738 2.54c-1.01.661-1.776 1.12-2.418 1.443-.692.347-1.243.53-1.793.615-.618.096-1.225.063-1.768-.133a2.696 2.696 0 0 1-1.365-1.077c-.379-.57-.624-1.33-.225-2.44.317-.866 1.08-1.99 2.65-3.476 2.907-2.755 8.73-6.957 12.19-9.453l.15-.105c1.71-1.231 2.793-2.019 3.448-2.541l.128-.102c-.501.186-1.134.5-1.893.923-1.01.564-2.21 1.306-3.6 2.194-1.247.8-2.317 1.5-3.39 2.202-2.009 1.316-4.041 2.643-5.478 3.52-1.25.764-2.227 1.304-3.039 1.672-.873.395-1.553.589-2.153.63-.667.05-1.234-.083-1.713-.35-.525-.292-.916-.733-1.205-1.272-.293-.556-.497-1.222-.172-2.146.257-.74.885-1.634 2.181-2.76 1.182-1.02 2.987-2.303 4.95-3.609 1.937-1.294 4.01-2.603 5.768-3.71l.68-.429c3.108-1.958 5.143-3.24 6.314-4.103.222-.163.411-.311.57-.444-.207.04-.436.088-.703.145-1.36.302-3.559.92-5.738 1.536-1.42.397-2.834.799-4.05 1.116-1.526.398-2.702.66-3.634.806-.993.153-1.713.175-2.277.087-.71-.108-1.21-.38-1.571-.763-.36-.389-.543-.848-.63-1.351-.092-.537-.099-1.138.424-1.87.4-.559 1.152-1.19 2.542-1.917l.054-.027c2.397-1.24 6.812-2.879 9.948-4.04l.595-.223c1.513-.561 2.63-.984 3.571-1.375.847-.353 1.441-.646 1.948-.953.792-.492 1.432-1.074 2.02-1.611.134-.124.267-.245.491-.444 1.59-1.592 3.495-2.31 5.03-2.361.687-.025 1.322.084 1.843.31.61.26 1.074.676 1.34 1.225.28.58.316 1.264.038 2.027a.984.984 0 0 1-.128.278c-.959 1.43-1.796 2.917-2.353 4.42-.546 1.454-.829 2.923-.712 4.356a5.83 5.83 0 0 0 2.052 3.995 5.897 5.897 0 0 0 4.295 1.379c.907-.075 1.66-.28 2.292-.604A5.068 5.068 0 0 0 38.91 68.5l.003.003.017-.02a.97.97 0 0 1 1.365-.092 5.05 5.05 0 0 0 1.786 1.026c.67.217 1.436.301 2.324.235l.073-.006a5.87 5.87 0 0 0 3.982-2.037 5.825 5.825 0 0 0 1.387-4.24l-.007-.062c-.436-5.205-6.126-9.996-10.226-13.45-.159-.13.303.26-.734-.621-.564-.477-.08-.06-.734-.613-4.367-3.677-10.428-8.782-10.912-14.799a7.728 7.728 0 0 1 1.844-5.669 7.824 7.824 0 0 1 5.335-2.72h.002c1.165-.094 2.19.023 3.112.322a6.788 6.788 0 0 1 1.717.838 6.935 6.935 0 0 1 1.565-1.101c.865-.44 1.859-.721 3.028-.815a7.836 7.836 0 0 1 5.702 1.838 7.764 7.764 0 0 1 2.735 5.307c.139 1.732-.194 3.473-.832 5.178l.003.003c-.607 1.626-1.492 3.22-2.502 4.737-.07.215-.073.374-.017.485.053.115.181.215.36.29.264.111.61.166 1.015.154 1.11-.04 2.514-.588 3.728-1.808l.048-.045c.088-.078.292-.263.495-.45.656-.597 1.365-1.245 2.31-1.828.607-.377 1.287-.709 2.221-1.099.837-.35 2.01-.793 3.645-1.4l.595-.22c3.092-1.146 7.443-2.76 9.729-3.946l.046-.024c1.088-.57 1.624-.993 1.864-1.328a.53.53 0 0 0 .092-.428c-.03-.16-.07-.29-.14-.362-.066-.075-.202-.133-.436-.169-.388-.06-.922-.04-1.695.082-.84.13-1.954.376-3.437.766-1.164.305-2.59.706-4.017 1.107-2.175.613-4.362 1.231-5.844 1.56-1.317.293-2.087.345-2.549.266-1.086-.19-1.24-.79-1.176-1.472.036-.38.178-.775.57-1.24.284-.344.74-.754 1.45-1.28 1.23-.908 3.29-2.205 6.435-4.184l.68-.428c1.756-1.108 3.824-2.414 5.726-3.682 1.862-1.24 3.574-2.453 4.695-3.415l.055-.052c1.015-.88 1.473-1.488 1.627-1.927.092-.26.027-.456-.06-.625-.119-.217-.26-.386-.437-.486-.158-.088-.36-.13-.627-.109-.377.027-.844.166-1.49.458-.706.32-1.615.827-2.823 1.563-1.625.993-3.54 2.248-5.434 3.485-1.274.832-2.538 1.66-3.407 2.215-1.428.917-2.662 1.68-3.696 2.257-1.087.603-1.979 1.023-2.688 1.218-.752.211-1.35.184-1.787.009a1.542 1.542 0 0 1-.567-.374 1.414 1.414 0 0 1-.348-.606 1.597 1.597 0 0 1 .075-1.053c.185-.462.553-.89 1.39-1.557.721-.58 1.81-1.367 3.524-2.604l.145-.106c3.427-2.47 9.195-6.628 11.996-9.283 1.325-1.258 1.937-2.121 2.162-2.737.134-.37.08-.582-.018-.73a.788.788 0 0 0-.406-.32c-.228-.08-.51-.093-.816-.045-.34.054-.712.184-1.216.437-.559.278-1.262.706-2.227 1.333a126.92 126.92 0 0 0-3.684 2.505 197.25 197.25 0 0 0-4.14 2.981c-.73.537-1.656 1.237-2.553 1.91-1.951 1.472-3.713 2.8-4.956 3.584-.964.61-1.665.917-2.194 1.047-.728.181-1.215.057-1.595-.157a1.697 1.697 0 0 1-.809-.984 1.96 1.96 0 0 1 .03-1.224c.122-.35.308-.67.891-1.235.46-.44 1.235-1.105 2.578-2.206l1.201-.983c2.708-2.206 6.607-5.386 8.74-7.564 1.16-1.186 1.76-2.031 2.015-2.646.164-.39.152-.61.073-.748-.08-.133-.218-.226-.403-.287-.289-.087-.653-.09-1.052-.014-.44.087-.917.274-1.705.739-.886.522-2.087 1.342-3.9 2.654-.79.573-1.971 1.446-3.258 2.39-3.506 2.58-7.794 5.736-11.113 7.908-2.194 1.434-3.955 2.432-5.298 3.035-1.629.727-2.808.923-3.564.649-1.68-.604-1.28-2.344-.743-4.68.046-.193.088-.389.194-.878a37.22 37.22 0 0 0 .658-3.934c.115-1.077.164-2.124.098-3.035-.068-.914-.25-1.683-.511-2.31-.266-.652-.615-1.144-1.003-1.485a3.295 3.295 0 0 0-1.143-.636 4.53 4.53 0 0 0-.663-.172 61.796 61.796 0 0 1-1.146 5.289c-.376 1.433-.846 3.08-1.37 4.736a87.95 87.95 0 0 1-1.547 4.463c-.298.775-.6 1.523-.898 2.265-.85 2.1-1.673 4.14-2.253 6.635-.392 1.68-.68 3.593-.917 5.624-.234 2.018-.42 4.19-.606 6.363a.972.972 0 0 1-1.047.883.966.966 0 0 1-.885-1.04c.183-2.167.37-4.33.613-6.427.243-2.085.54-4.067.952-5.835.615-2.637 1.468-4.75 2.344-6.922.294-.724.589-1.457.883-2.226a89.44 89.44 0 0 0 1.511-4.366c.533-1.69.994-3.295 1.346-4.637a58.294 58.294 0 0 0 1.116-5.192C28.759.628 29.37.1 30.384.259c.325.052.806.127 1.355.311a5.275 5.275 0 0 1 1.801 1.024c.601.528 1.128 1.261 1.511 2.193.34.815.57 1.786.653 2.909.075 1.023.023 2.181-.1 3.366a38.784 38.784 0 0 1-.691 4.146l-.2.89c-.323 1.391-.56 2.426-.49 2.45.277.1.967-.088 2.109-.598 1.274-.57 2.942-1.518 5.034-2.884 3.236-2.118 7.519-5.271 11.022-7.848a549.43 549.43 0 0 1 3.273-2.395c1.896-1.373 3.145-2.227 4.052-2.76C60.72.468 61.381.218 62.03.09c.713-.14 1.407-.117 2.001.067.653.201 1.186.594 1.516 1.182.343.6.466 1.367.03 2.423-.342.827-1.07 1.88-2.416 3.259-2.202 2.244-6.154 5.47-8.901 7.708l-1.202.984c-1.289 1.055-2.023 1.686-2.453 2.1a4.333 4.333 0 0 0-.332.346c.337-.084.84-.317 1.614-.805 1.192-.752 2.917-2.052 4.831-3.494.758-.573 1.551-1.168 2.564-1.919a217.506 217.506 0 0 1 4.181-3.01c1.426-1.002 2.72-1.88 3.737-2.541 1.01-.66 1.771-1.12 2.414-1.44.692-.346 1.244-.53 1.796-.618.619-.096 1.225-.063 1.768.133a2.717 2.717 0 0 1 1.365 1.077c.379.573.627 1.33.222 2.443-.313.863-1.077 1.985-2.647 3.473-2.906 2.758-8.732 6.957-12.19 9.452l-.149.106c-1.71 1.235-2.793 2.019-3.448 2.54l-.128.103c.501-.186 1.135-.5 1.89-.923 1.01-.564 2.21-1.306 3.6-2.194 1.25-.8 2.318-1.5 3.391-2.202 2.008-1.312 4.04-2.64 5.48-3.52 1.247-.764 2.224-1.304 3.036-1.672.874-.395 1.556-.59 2.153-.631.668-.048 1.235.084 1.717.353.522.29.915.73 1.202 1.27.297.558.496 1.222.176 2.146-.262.739-.886 1.634-2.184 2.76l-.062.048c-1.191 1.026-2.968 2.284-4.885 3.563a269.56 269.56 0 0 1-5.772 3.708l-.68.429c-3.106 1.958-5.144 3.237-6.31 4.103-.223.163-.411.311-.572.443.204-.039.438-.084.7-.144 1.363-.302 3.562-.92 5.74-1.536 1.418-.398 2.832-.796 4.05-1.116 1.53-.399 2.703-.66 3.631-.806.998-.153 1.716-.175 2.278-.088.71.11 1.213.38 1.57.767.364.386.546.848.631 1.348.096.537.1 1.137-.423 1.87-.398.559-1.15 1.19-2.539 1.917l-.058.027c-2.393 1.24-6.808 2.878-9.944 4.04l-.6.223c-1.508.561-2.624.983-3.568 1.375-.847.353-1.441.643-1.947.957-.791.488-1.431 1.074-2.02 1.608-.137.123-.267.244-.495.443-1.59 1.593-3.49 2.311-5.029 2.366-.685.02-1.318-.088-1.844-.314-.607-.26-1.073-.675-1.34-1.225-.277-.579-.316-1.264-.036-2.027.03-.096.068-.19.126-.278.962-1.43 1.796-2.917 2.358-4.42l.002.004v-.003c.543-1.452.825-2.915.71-4.357a5.849 5.849 0 0 0-2.053-3.995 5.908 5.908 0 0 0-4.298-1.376c-.904.073-1.655.278-2.29.604a5.083 5.083 0 0 0-1.597 1.3l-.02.017a.97.97 0 0 1-1.364.091 5.084 5.084 0 0 0-1.789-1.025c-.667-.218-1.43-.302-2.323-.235l-.073.006a5.88 5.88 0 0 0-3.98 2.04 5.834 5.834 0 0 0-1.39 4.236l.008.063c.44 5.207 6.125 9.996 10.23 13.45.155.13-.306-.257.731.621h.002Zm79.757 21.387a.256.256 0 0 0-.097.042l-.152.09c-.054.03-.106.061-.151.088-.049.03-.073.042-.086.042a6.947 6.947 0 0 1-.382.205 5.342 5.342 0 0 0-.35.209 14.3 14.3 0 0 0-1.499 1.086c-.468.386-.891.803-1.28 1.252a7.91 7.91 0 0 0-.719.944 6.644 6.644 0 0 0-.573 1.045c-.164.361-.289.73-.377 1.107a4.55 4.55 0 0 0-.114 1.128c.008.274.039.535.096.78.054.24.146.427.274.554a.95.95 0 0 0 .728.27c.282-.013.585-.098.912-.248a5.79 5.79 0 0 0 1.028-.624c.365-.27.715-.558 1.062-.875.345-.318.676-.646.995-.99a24.7 24.7 0 0 0 .864-.984.971.971 0 0 0 .184-.236c.061-.1.128-.181.201-.247.076-.045.139-.03.187.042.052.072.08.148.08.22-.02.393-.106.754-.259 1.08a4.889 4.889 0 0 1-.545.9 9.238 9.238 0 0 1-2.035 1.874 6.513 6.513 0 0 1-1.229.645 3.375 3.375 0 0 1-1.231.247 2.14 2.14 0 0 1-.907-.18 2.073 2.073 0 0 1-.65-.473 2.54 2.54 0 0 1-.442-.682 4.37 4.37 0 0 1-.271-.812 4.126 4.126 0 0 1-.049-.284 2.174 2.174 0 0 1-.02-.307c0-.477.049-.92.146-1.327.096-.41.212-.806.351-1.192a2.63 2.63 0 0 1 .224-.51 8.125 8.125 0 0 1 1.028-1.617c.42-.517.886-.99 1.399-1.415.509-.429 1.052-.8 1.625-1.123a8.094 8.094 0 0 1 1.728-.73.656.656 0 0 1 .455 0c.046.02.091.03.139.03a.26.26 0 0 0 .153-.07.428.428 0 0 1 .433-.014c.154.075.24.201.257.386.027.257-.005.51-.096.757-.068.22-.134.425-.201.618-.07.194-.139.39-.215.585a8.46 8.46 0 0 0-.209.64 7.47 7.47 0 0 0-.164.784c-.012.046-.025.1-.049.157-.024.06-.049.1-.079.117a.256.256 0 0 1-.185.145c-.076.012-.149-.015-.215-.091a.561.561 0 0 0-.061-.082c-.025-.027-.042-.06-.061-.096a2.244 2.244 0 0 1-.176-.715 4.106 4.106 0 0 1 .015-.806c.033-.272.098-.522.194-.757.098-.232.218-.428.367-.585l.004.003Zm7.716 5.12a3.043 3.043 0 0 0-.971.695 8.95 8.95 0 0 0-.834 1.026c-.264.374-.518.766-.768 1.167-.249.405-.498.782-.746 1.129a.225.225 0 0 1-.264.069.298.298 0 0 1-.194-.211.555.555 0 0 1 .028-.338c.066-.221.127-.468.186-.746.062-.274.116-.564.171-.865.058-.303.116-.607.176-.909.061-.302.122-.591.187-.865a.273.273 0 0 1 .128-.172.52.52 0 0 1 .23-.07.4.4 0 0 1 .218.049.255.255 0 0 1 .128.165c.036.184.024.405-.037.66-.061.258-.124.51-.2.758.166-.205.348-.44.546-.709.2-.271.418-.522.651-.757.234-.235.482-.425.746-.579a1.36 1.36 0 0 1 .822-.184.707.707 0 0 1 .352.226 1.1 1.1 0 0 1 .203.356c.046.136.07.265.076.395a.873.873 0 0 1-.037.328c-.063.13-.139.27-.227.42a2.47 2.47 0 0 0-.209.462c-.05.157-.071.307-.062.462.012.15.085.286.222.403.058.073.052.13-.015.166a.561.561 0 0 1-.26.06 1.143 1.143 0 0 1-.334-.033.437.437 0 0 1-.233-.124 1.423 1.423 0 0 1-.271-.612 1.731 1.731 0 0 1 .022-.624c.046-.212.118-.42.222-.622a5.34 5.34 0 0 1 .345-.576h.003Zm3.858 2.725c-.02-.35.017-.712.108-1.086.091-.377.231-.724.416-1.04.184-.318.418-.577.7-.776a1.71 1.71 0 0 1 .989-.317.753.753 0 0 1 .448.286c.103.148.134.326.091.537-.04.203-.091.374-.162.516a1.572 1.572 0 0 1-.354.45 5.23 5.23 0 0 1-.346.286c-.146.121-.288.245-.428.37a3.24 3.24 0 0 0-.357.393c-.103.133-.154.247-.154.338-.028.239.012.393.112.462.1.07.234.096.394.082.161-.013.325-.058.492-.13.166-.075.3-.14.4-.194.118-.081.255-.186.404-.31.146-.124.291-.254.442-.393.147-.136.288-.27.424-.399l.347-.316c.076-.073.142-.142.2-.205a.88.88 0 0 1 .218-.166.381.381 0 0 1 .169-.012c.043.009.037.078-.017.205a2.273 2.273 0 0 1-.272.44 8.837 8.837 0 0 1-.338.413 50.47 50.47 0 0 1-.531.577c-.191.202-.388.39-.597.558a4.037 4.037 0 0 1-.65.44 2.03 2.03 0 0 1-.7.239c-.421.03-.77-.057-1.042-.26-.272-.202-.406-.53-.406-.99v.002Zm2.214-2.588c-.25.093-.446.21-.59.359-.146.148-.249.362-.312.645.203-.144.386-.296.548-.445.159-.151.277-.335.353-.558l.001-.001Zm6.193 2.975c-.085.063-.176.133-.276.21a2.134 2.134 0 0 1-.331.21 2.02 2.02 0 0 1-.382.135.986.986 0 0 1-.421.006.835.835 0 0 1-.306-.114 1.98 1.98 0 0 1-.262-.215.593.593 0 0 1-.151-.36 1.845 1.845 0 0 1-.015-.37 7.67 7.67 0 0 1 .193-.757c.083-.265.186-.524.307-.781.2-.422.461-.8.773-1.132a2.13 2.13 0 0 1 1.131-.63c.151-.037.304-.046.467-.022a.98.98 0 0 1 .419.157.886.886 0 0 1 .279.311c.063.123.078.26.041.407-.017.055-.041.109-.063.163a.48.48 0 0 1-.081.139c-.034.036-.064.057-.093.06-.026.006-.053-.02-.083-.075a1.719 1.719 0 0 0-.035-.118.713.713 0 0 0-.063-.15.395.395 0 0 0-.115-.136.305.305 0 0 0-.2-.063c-.176 0-.376.108-.595.326a4.859 4.859 0 0 0-.636.754 7.8 7.8 0 0 0-.527.866c-.146.29-.237.507-.274.655-.058.238-.054.364.012.38.068.012.164-.04.303-.153.14-.115.298-.272.474-.474.174-.203.34-.401.499-.598.156-.199.29-.374.406-.524.115-.151.176-.23.188-.239a.526.526 0 0 1 .358-.127.567.567 0 0 1 .491.42c.03.115.02.232-.037.353-.061.148-.144.32-.254.522-.104.202-.172.38-.2.537-.028.238 0 .395.085.468.081.075.233.07.454-.015.177-.072.358-.202.553-.392.193-.188.388-.387.576-.598.189-.211.365-.41.534-.604a3.585 3.585 0 0 1 .516-.515c.042-.034.076-.04.103-.022.049.019.073.043.079.076.002.03.005.066.005.102a6.917 6.917 0 0 1-.431.866c-.164.286-.35.55-.557.79a4.194 4.194 0 0 1-.692.65 3.31 3.31 0 0 1-.825.446 1.07 1.07 0 0 1-.498.063.978.978 0 0 1-.691-.477 1.356 1.356 0 0 1-.152-.41v-.001Zm6.499 1.882c.058.175.167.23.337.166.172-.063.37-.203.598-.414a7.84 7.84 0 0 0 .712-.772c.249-.302.486-.6.71-.894.23-.292.423-.558.587-.796.167-.238.279-.395.335-.468.046-.075.096-.142.157-.209a1.972 1.972 0 0 1 .361-.296c.051-.03.093-.045.129-.042.037.007.055.036.049.09a.956.956 0 0 1-.103.278 22.12 22.12 0 0 1-.261.501c-.122.224-.27.477-.443.757-.176.28-.37.567-.582.866a7.808 7.808 0 0 1-.685.832c-.243.257-.492.48-.746.673a1.932 1.932 0 0 1-.771.371c-.227.057-.44.084-.634.09a.678.678 0 0 1-.512-.214c-.14-.136-.215-.332-.236-.591a3.694 3.694 0 0 1 .036-.818c.042-.289.1-.57.173-.838.076-.272.137-.48.179-.627.149-.477.291-.947.425-1.409.134-.464.263-.93.394-1.397.136-.414.264-.836.379-1.274.115-.435.233-.826.354-1.177a16.82 16.82 0 0 0-.569-.018 38.409 38.409 0 0 0-.58-.015 7.136 7.136 0 0 1-.572-.033 3.26 3.26 0 0 1-.534-.097.593.593 0 0 1-.325-.177.37.37 0 0 1-.098-.251c.003-.081.052-.154.137-.211.088-.06.216-.091.382-.091.103 0 .267.01.499.027.229.017.472.033.728.042.252.009.484.012.703.006.218-.006.357-.02.421-.048.027-.01.042-.025.042-.042.054-.163.115-.338.179-.522.064-.184.127-.362.193-.537l.189-.495c.058-.157.108-.29.158-.399.036-.084.112-.117.227-.102.116.012.235.051.361.115.125.066.23.144.325.24.09.098.133.188.124.27a2.349 2.349 0 0 1-.194.702c-.103.23-.187.489-.26.785.58-.01 1.079-.019 1.499-.021.418-.006.827-.006 1.225-.006.128 0 .257 0 .388.006.128.003.229.015.298.033.068.019.086.046.049.075-.039.034-.157.076-.361.134-.579.181-1.143.323-1.69.42-.542.096-1.076.165-1.6.21-.049.013-.068.019-.064.03.004.006-.008.036-.033.082 0 .01-.006.018-.015.027-.008.01-.015.018-.015.027a94.914 94.914 0 0 0-1.008 2.917 70.38 70.38 0 0 0-.497 1.57c-.158.512-.291.977-.403 1.396-.11.417-.191.764-.239 1.045-.052.28-.055.452-.01.516l-.002.002Zm9.239-3.949a64.028 64.028 0 0 1-2.091 2.215 2.961 2.961 0 0 1-.372.332c-.091.064-.131.027-.113-.109.012-.075.037-.181.073-.317.037-.138.08-.283.123-.434.048-.151.09-.297.133-.435.042-.136.072-.24.091-.317l.122-.446c.038-.142.078-.29.126-.447a.87.87 0 0 0 .02-.495 1.064 1.064 0 0 0-.194-.42.632.632 0 0 0-.298-.229.27.27 0 0 0-.291.07 2.53 2.53 0 0 0-.191.4 10.77 10.77 0 0 0-.409 1.436 5.752 5.752 0 0 0-.13 1.548c0 .166.046.32.13.462.091.142.212.263.367.365a.41.41 0 0 0 .185.07.812.812 0 0 0 .243-.01c.085-.012.163-.033.242-.06a.634.634 0 0 0 .188-.097c.128-.111.249-.23.358-.36a3.8 3.8 0 0 0 .376-.404c.158-.186.322-.395.491-.621.171-.223.335-.443.492-.658.155-.217.279-.392.369-.53 0-.01.03-.067.086-.172.054-.106.073-.263.054-.474v-.028h-.012l-.166.163-.002.002Zm-1.939-1.65c-.061.063-.109.063-.137 0a1.588 1.588 0 0 1-.234-.577 1.127 1.127 0 0 1 .055-.606.523.523 0 0 1 .242-.296c.122-.079.237-.103.337-.075a.698.698 0 0 1 .179.09c.068.04.108.088.128.143.06.25.027.488-.106.718a2.87 2.87 0 0 1-.465.603h.001Zm5.435 3.412c.085.063.166.048.249-.048.086-.097.169-.241.257-.441.088-.196.174-.432.255-.7.083-.272.173-.543.271-.811.096-.272.2-.535.303-.784.108-.253.225-.462.355-.628a.526.526 0 0 1 .227-.205c.106-.056.201-.066.285-.027a.28.28 0 0 1 .176.136c.048.075.06.15.042.235v.172c0 .06.012.123.03.198a.8.8 0 0 0 .315.48c.159.112.335.19.534.235.198.046.401.06.607.049.209-.015.394-.046.564-.09a.526.526 0 0 0 .103-.013.356.356 0 0 1 .108-.01c.03.007.055.019.061.036.013.019-.005.052-.053.097-.177.184-.37.313-.59.392a1.69 1.69 0 0 1-.655.097 1.804 1.804 0 0 1-.65-.172 2.104 2.104 0 0 1-.57-.401c-.082.175-.191.416-.327.724-.139.308-.298.621-.468.942-.169.322-.35.612-.545.875-.194.26-.392.428-.594.5-.249.084-.456.076-.622-.02a1.041 1.041 0 0 1-.401-.42 1.982 1.982 0 0 1-.215-.619 3.327 3.327 0 0 1-.061-.591v-.634c0-.135.004-.269.012-.392a9.83 9.83 0 0 1 .042-.393c0-.1.006-.198.013-.302a3.94 3.94 0 0 1 .042-.317c0-.046.012-.081.033-.102.025-.025.055-.028.091-.007.267.046.464.163.595.356.13.194.193.407.193.646 0 .14-.008.296-.027.468-.018.175-.036.355-.048.537a7.386 7.386 0 0 0-.021.516c0 .16.018.296.058.407 0 .018.003.027.011.027h.012l.003.002Zm6.473-.082c-.018-.35.017-.712.112-1.086.09-.377.228-.724.415-1.04.183-.318.416-.577.698-.776.279-.202.612-.308.989-.317a.739.739 0 0 1 .448.286c.106.148.136.326.091.537a1.93 1.93 0 0 1-.162.516 1.585 1.585 0 0 1-.35.45 8.256 8.256 0 0 1-.347.286 8.7 8.7 0 0 0-.426.37c-.14.13-.262.26-.362.393-.099.133-.152.247-.152.338-.027.239.01.393.113.462.099.07.23.096.394.082.161-.013.322-.058.491-.13.164-.075.298-.14.401-.194.118-.081.254-.186.4-.31.147-.124.295-.254.443-.393.147-.136.292-.27.428-.399.137-.127.252-.232.346-.316.075-.073.142-.142.199-.205a.868.868 0 0 1 .216-.166.403.403 0 0 1 .174-.012c.038.009.033.078-.022.205a2.365 2.365 0 0 1-.27.44 8.31 8.31 0 0 1-.34.413 50.47 50.47 0 0 1-.531.577 5.74 5.74 0 0 1-.594.558c-.21.169-.424.317-.648.44a2.065 2.065 0 0 1-.7.239c-.423.03-.775-.057-1.045-.26-.272-.202-.408-.53-.408-.99l-.001.002Zm2.214-2.588c-.25.093-.446.21-.59.359-.141.148-.244.362-.31.645.201-.144.383-.296.546-.445a1.3 1.3 0 0 0 .353-.558l.001-.001Zm10.122 2.546c-.029 0-.042-.01-.042-.027a.882.882 0 0 1-.254-.51 2.054 2.054 0 0 1 0-.645c.03-.23.088-.465.171-.704.083-.238.166-.461.251-.673a87.17 87.17 0 0 0 1.809-4.83 6.944 6.944 0 0 0-1.176.402 2.822 2.822 0 0 0-.952.685 3.396 3.396 0 0 0-.242.278 3.187 3.187 0 0 0-.27.376 2.4 2.4 0 0 0-.201.4.584.584 0 0 0-.048.321c-.018.085-.064.103-.13.058a.807.807 0 0 1-.215-.235 1.604 1.604 0 0 1-.186-.377.689.689 0 0 1-.036-.393c.103-.431.278-.798.533-1.107a3.62 3.62 0 0 1 .892-.778 4.655 4.655 0 0 1 1.091-.495 8.406 8.406 0 0 1 1.134-.263 7.51 7.51 0 0 1 .989-.108 7.31 7.31 0 0 1 1.091.027c.365.036.71.109 1.037.211.328.109.607.257.839.45.509.32.857.72 1.049 1.203.193.48.269.987.224 1.521a5.909 5.909 0 0 1-.739 1.753c-.359.573-.77 1.107-1.238 1.602-.474.495-.979.945-1.522 1.342-.546.399-1.07.728-1.577.984a1.49 1.49 0 0 1-.201.117c-.07.03-.146.073-.229.118a8.18 8.18 0 0 1-1.147.447 5.703 5.703 0 0 1-1.072.205 4.863 4.863 0 0 1-1.086-.021 7.126 7.126 0 0 1-1.176-.26c-.1-.057-.152-.102-.152-.138 0-.036.046-.088.14-.15.09-.046.185-.082.276-.112.091-.027.182-.046.277-.054.36-.1.718-.184 1.07-.253.358-.07.698-.18 1.018-.324v-.042Zm.304-.096c.139-.01.298-.052.485-.124.181-.071.372-.159.564-.262a10.015 10.015 0 0 0 .982-.577 18.017 18.017 0 0 0 2.194-1.81 7.782 7.782 0 0 0 1.624-2.263 5.19 5.19 0 0 0 .153-.365 1.8 1.8 0 0 0 .096-.377c.046-.283.02-.524-.071-.72a1.27 1.27 0 0 0-.4-.498 1.932 1.932 0 0 0-.621-.308 4.33 4.33 0 0 0-.735-.16 4.903 4.903 0 0 0-.724-.038 6.313 6.313 0 0 0-.6.033c-.03 0-.042.033-.042.096v.166a62.584 62.584 0 0 1-1.268 3.692 26.031 26.031 0 0 1-1.637 3.515Zm8.783.138c-.02-.35.017-.712.108-1.086.091-.377.231-.724.416-1.04.184-.318.416-.577.697-.776a1.72 1.72 0 0 1 .989-.317.742.742 0 0 1 .448.286c.106.148.137.326.091.537a2 2 0 0 1-.161.516 1.526 1.526 0 0 1-.352.45 7.401 7.401 0 0 1-.345.286c-.147.121-.292.245-.431.37-.137.13-.255.26-.358.393-.103.133-.151.247-.151.338-.027.239.008.393.108.462.103.07.237.096.395.082.164-.013.327-.058.491-.13.167-.075.3-.14.404-.194.118-.081.251-.186.4-.31.149-.124.294-.254.443-.393.149-.136.288-.27.426-.399.14-.127.257-.232.347-.316.073-.073.139-.142.2-.205a.906.906 0 0 1 .216-.166.396.396 0 0 1 .172-.012c.042.009.037.078-.021.205a2.36 2.36 0 0 1-.269.44 8.909 8.909 0 0 1-.34.413c-.164.184-.342.374-.531.577-.191.202-.386.39-.594.558a4.28 4.28 0 0 1-.653.44 1.994 1.994 0 0 1-.697.239c-.424.03-.771-.057-1.043-.26-.272-.202-.406-.53-.406-.99l.001.002Zm2.211-2.588a1.582 1.582 0 0 0-.589.359c-.144.148-.247.362-.313.645.206-.144.389-.296.549-.445.161-.151.279-.335.352-.558l.001-.001Zm5.336 2.216c-.183-.26-.365-.52-.543-.785a1.552 1.552 0 0 1-.27-.88c0-.36.103-.698.31-1.012a2.95 2.95 0 0 1 .712-.766c.112-.073.225-.133.34-.178a.47.47 0 0 1 .367.015.687.687 0 0 0 .173.06c.058.015.112.03.157.048.047.019.098.049.156.085a.173.173 0 0 1 .081.15c0 .257.007.465.022.625.012.16.033.299.061.413.03.115.054.218.085.303.024.09.054.18.081.283a.37.37 0 0 1-.015.232c-.025.066-.096.075-.206.03a.778.778 0 0 1-.448-.441 3.723 3.723 0 0 1-.215-.606 2.261 2.261 0 0 0-.07-.193 1.227 1.227 0 0 1-.068-.193c-.076-.018-.164.009-.263.075-.1.07-.191.163-.271.284a.988.988 0 0 0-.151.414.739.739 0 0 0 .09.468c.037.054.088.12.159.198.066.078.139.157.206.241l.206.239c.073.078.127.142.176.186a.488.488 0 0 0 .108.091.344.344 0 0 0 .14-.036c.09-.045.23-.105.418-.177.191-.073.389-.149.599-.221a7.44 7.44 0 0 1 .594-.184 1.79 1.79 0 0 1 .433-.079c.066 0 .112.025.139.07.03.026.025.066-.012.11a.766.766 0 0 1-.144.136 1.58 1.58 0 0 1-.189.124c-.063.04-.105.06-.124.069a8.489 8.489 0 0 1-.594.311 6.752 6.752 0 0 0-.622.335.27.27 0 0 1-.103.058.493.493 0 0 0-.118.054c.112.247.188.462.234.64.049.178.064.35.049.515a2.27 2.27 0 0 1-.103.504c-.055.17-.128.362-.222.583-.128.21-.262.413-.391.606a3.348 3.348 0 0 1-.453.522c-.166.157-.345.28-.539.371a1.42 1.42 0 0 1-.634.139c-.13 0-.255-.019-.376-.048a.596.596 0 0 1-.303-.2c-.213-.229-.335-.478-.359-.75a2.1 2.1 0 0 1 .068-.802c.054-.166.124-.32.209-.456.204-.35.425-.643.67-.887.242-.244.501-.474.766-.693h-.003Zm.472.618c-.103.1-.24.245-.416.432a6.11 6.11 0 0 0-.487.612c-.156.22-.279.441-.377.655-.096.214-.121.4-.075.558.185-.084.372-.221.567-.408.194-.187.364-.395.511-.618.151-.226.254-.447.315-.667.058-.22.048-.407-.037-.564h-.001Zm8.364-1.928.171-.163h.012v.027c.018.211 0 .368-.054.474-.055.105-.086.163-.086.172a26.49 26.49 0 0 1-1.352 1.81 3.823 3.823 0 0 1-.376.404 3.43 3.43 0 0 1-.358.36.691.691 0 0 1-.188.096 1.297 1.297 0 0 1-.243.06.834.834 0 0 1-.242.01.39.39 0 0 1-.186-.07 1.17 1.17 0 0 1-.367-.364.904.904 0 0 1-.129-.462 5.833 5.833 0 0 1 .129-1.548 11.6 11.6 0 0 1 .407-1.436 2.56 2.56 0 0 1 .194-.401.27.27 0 0 1 .29-.07c.113.04.214.115.298.23.093.115.152.253.194.42a.846.846 0 0 1-.02.495 15.41 15.41 0 0 0-.125.447c-.037.141-.08.292-.122.445a6.37 6.37 0 0 1-.091.318c-.042.139-.083.283-.134.434-.045.15-.083.296-.121.434a2.707 2.707 0 0 0-.073.318c-.018.135.019.171.113.108a3.03 3.03 0 0 0 .372-.332 63.708 63.708 0 0 0 2.086-2.215l.001-.001Zm-1.935-1.65c-.063.063-.108.063-.139 0a1.588 1.588 0 0 1-.234-.577 1.129 1.129 0 0 1 .058-.606.523.523 0 0 1 .242-.296c.122-.08.237-.103.338-.076a.836.836 0 0 1 .178.091c.066.04.106.088.125.142.064.25.03.49-.103.719-.137.23-.288.428-.465.603Zm5.297 3.192c.053.054.159.04.312-.049.152-.087.318-.198.497-.338.179-.135.367-.28.562-.431.193-.151.357-.269.496-.354a2.2 2.2 0 0 1 .27-.135c.125-.055.252-.097.386-.124.133-.027.258-.033.369-.016.111.019.177.085.194.194.02.166.03.332.035.495.002.166.015.34.033.525v.135c.184-.135.376-.268.577-.392.194-.123.388-.24.57-.35.212-.12.418-.235.619-.35.196-.115.4-.208.612-.284.017.01.03.015.03.015v.012a.35.35 0 0 0-.036.042c-.005.01-.017.022-.035.043a9.19 9.19 0 0 1-.491.5l-.492.462c-.191.193-.376.36-.546.5-.171.142-.357.309-.56.49a1.399 1.399 0 0 0-.31.44c-.06.148-.115.317-.158.51-.187.595-.376 1.234-.577 1.912a16.338 16.338 0 0 1-.712 1.973 8.793 8.793 0 0 1-1.003 1.753 4.12 4.12 0 0 1-1.417 1.24 1.313 1.313 0 0 1-.41-.01.773.773 0 0 1-.379-.183 1.172 1.172 0 0 1-.384-.591 2.159 2.159 0 0 1-.081-.721c.015-.254.061-.504.134-.751.073-.247.152-.462.235-.646a10.39 10.39 0 0 1 .797-1.479c.298-.464.619-.902.965-1.315a15.16 15.16 0 0 1 1.101-1.177c.388-.37.784-.73 1.191-1.08.036-.036.07-.117.103-.241.03-.123.054-.24.066-.357a.778.778 0 0 0-.005-.277c-.018-.067-.064-.067-.14.01a12.38 12.38 0 0 1-.585.44c-.21.145-.421.274-.645.386a3.735 3.735 0 0 1-.678.26 1.72 1.72 0 0 1-.69.054.92.92 0 0 1-.499-.226.96.96 0 0 1-.254-.399 1.51 1.51 0 0 1-.076-.494c0-.178.024-.353.066-.516.086-.34.228-.643.431-.908.201-.266.474-.45.816-.552a2.174 2.174 0 0 1 1.793.193.365.365 0 0 1 .157.208c.092.199.019.287-.22.26a4.154 4.154 0 0 0-.313-.043c-.103-.006-.206-.012-.297-.012-.287 0-.529.072-.725.215a1.76 1.76 0 0 0-.7 1.08c-.037.19-.037.343 0 .452l.001.002Zm1.785 1.803c-.288.311-.574.625-.863.942-.292.317-.565.64-.819.968-.252.332-.487.68-.698 1.041a6.311 6.311 0 0 0-.526 1.147 4.867 4.867 0 0 0-.171.763c-.03.244-.015.495.048.751.184-.09.37-.253.552-.482a6.7 6.7 0 0 0 .522-.754c.158-.278.303-.544.433-.806.13-.263.234-.477.319-.64l.297-.612c.134-.28.267-.573.401-.88.134-.31.252-.598.35-.867.104-.272.156-.462.156-.57h-.001Zm5.851-.88a.724.724 0 0 1-.085.135c-.146.103-.249.075-.304-.081-.017-.076-.033-.142-.041-.209a1.307 1.307 0 0 1-.013-.205 5.108 5.108 0 0 1 0-.606 4 4 0 0 1 .164-.748 8.15 8.15 0 0 1 .298-.806c.115-.266.237-.516.357-.748.127-.236.243-.426.355-.573a.294.294 0 0 1 .228-.136.45.45 0 0 1 .284.069.599.599 0 0 1 .218.232.456.456 0 0 1 .043.344 1.914 1.914 0 0 0-.136.235c-.027.055-.058.109-.083.157a.615.615 0 0 1-.058.091c.101-.073.204-.157.307-.247.1-.094.203-.181.31-.263a2.43 2.43 0 0 1 .325-.214.732.732 0 0 1 .36-.088c.156 0 .294.042.413.13.121.087.22.192.3.317a.993.993 0 0 1 .142.399c.019.141.012.277-.024.407a3.483 3.483 0 0 1-.347.72c-.151.236-.298.465-.451.695-.151.23-.291.461-.421.696a2.86 2.86 0 0 0-.276.721c-.058.193-.058.311-.008.36.054.045.121.054.202.026a.962.962 0 0 0 .255-.138c.088-.064.149-.112.186-.14a9.15 9.15 0 0 0 1.067-.967c.33-.353.658-.692.983-1.011.275-.274.448-.426.518-.447.069-.024.076.021.028.136a4.87 4.87 0 0 1-.249.461c-.116.193-.219.362-.313.51a10.05 10.05 0 0 1-.458.667c-.194.26-.406.512-.643.757-.234.24-.476.45-.725.618-.249.17-.479.253-.692.253a.827.827 0 0 1-.415-.102 1.189 1.189 0 0 1-.303-.253 1.03 1.03 0 0 1-.189-.344 1.236 1.236 0 0 1-.061-.387c0-.459.095-.908.285-1.348.188-.44.389-.844.601-1.21.103-.193.127-.326.081-.398-.045-.076-.178-.06-.4.039a1.34 1.34 0 0 0-.512.447 5.882 5.882 0 0 0-.438.702 12.23 12.23 0 0 0-.363.751 5.714 5.714 0 0 1-.302.591v.002ZM87.709 37.776c-6.617.052-8.112 8.418-7.23 13.646.369 1.994 1.17 3.826 2.72 5.232 4.03 3.771 10.648.37 11.049-4.779.242-2.893-3.521-3.213-4.562-.558-.91 2.338-3.045 1.964-3.736-.105-.428-1.3-.75-5.256.666-7.672 1.44-2.472 3.895-1.702 3.282 1.457-.053.32-.078.613-.105.745-.24 1.94 2.402 2.604 3.52 1.089.698-.93.832-3.268.401-4.833-.8-2.894-3.415-4.248-6.005-4.22v-.002Zm14.07 8.496c.106-1.327.188-2.495.294-3.663.054-1.143.212-2.338.267-3.506a2.187 2.187 0 0 0-1.947-2.256c-1.045-.133-2.057.637-2.348 1.753-.055.289-.11.581-.11.874-.345 2.682-.426 5.391-.4 8.098 0 2.15.133 4.275.561 6.372.134.69.294 1.381.562 2.02.322.77.907 1.008 1.707.982.774-.082 1.202-.504 1.414-1.168.348-1.143.67-2.257 1.071-3.373.318-.93.636-1.803 1.037-2.682.215-.504.482-.957 1.015-1.14.453.398.453.847.428 1.327-.054 1.512-.161 3.053-.212 4.592-.03.507 0 1.065.157 1.514.589 1.434 2.378 1.593 3.258.345.24-.345.424-.793.455-1.195.105-1.672.212-3.292.239-4.94 0-1.218-.372-2.44-1.04-3.502-1.282-1.964-3.39-2.417-5.367-1.17-.292.186-.585.374-1.04.718h-.001Zm19.273 1.382c-.345-.134-.479-.215-.64-.215-3.096-1.114-6.727.558-7.901 3.64-.961 2.548.455 5.336 2.964 5.946 1.094.214 2.187.16 3.23-.266.773-.289 1.523-.663 2.292-1.007.137.16.267.32.377.45.824.745 1.922.663 2.559-.212.216-.317.403-.718.483-1.116.105-.583.159-1.168.214-1.75.159-2.019.267-4.064-.108-6.056-.347-1.78-1.226-3.213-2.828-4.17-2.456-1.51-5.151.028-5.98 1.726-.373.746-.24 1.436.294 1.913.534.48 1.282.453 1.92-.027.322-.21.643-.449.988-.636.747-.426 1.414-.184 1.79.636.134.293.213.613.346 1.144Zm-.721 4.22c-.77.586-1.548 1.141-2.536 1.3-.37.028-.904.188-1.118-.238-.641-1.274 3.284-2.866 3.654-1.062Zm11.16-7.355c-.185-.16-.322-.292-.452-.371-1.04-.692-2.295-.32-2.774.823-.11.266-.164.531-.216.77-.506 3.267-.345 6.504.052 9.744.215 1.38 1.467 2.284 2.801 2.151 1.444-.133 2.405-1.25 2.324-2.71-.024-.69-.186-1.381-.24-2.07-.184-2.123.216-3.982 2.218-5.177.051-.027.134-.082.212-.133 1.068-.932 1.335-2.417.612-3.4-.667-.957-2.159-1.195-3.335-.558-.213.133-.347.238-.534.347-.213.184-.401.344-.668.582v.002Zm8.653 3.213c-.373 2.815-.24 5.099.294 8.02.051.425.267.848.479 1.249.401.637 1.174.902 1.977.77.715-.133 1.253-.612 1.36-1.276.372-2.655.266-5.335 1.067-8.07.988-3.373-4.298-4.092-5.178-.692h.001Zm.612-5.708c-.027-1.406 1.228-2.495 2.908-2.495 1.549 0 2.697 1.008 2.697 2.308 0 1.301-1.229 2.495-2.588 2.523-1.628 0-2.963-1.008-3.018-2.336h.001Zm10.173 4.994v1.034c-.027 2.042.134 4.088.773 6.08.345 1.06.801 2.095 1.577 2.947 1.39 1.487 3.494 1.647 5.072.293.372-.32.718-.692.958-1.144.643-1.167 1.149-2.44 1.335-3.795.081-.452 0-.983-.078-1.46-.134-.637-.59-.984-1.202-1.035-.558-.054-1.012.157-1.306.688-1.096 3.717-2.109-1.75-1.575-3.452.8 0 1.468.028 2.134 0 .508-.051 1.042-.238 1.523-.449.479-.215.719-.663.668-1.25-.083-.503-.376-.873-.856-1.034-.509-.133-1.043-.187-1.549-.238-.531-.055-1.04-.027-1.629-.027.054-.372.11-.692.133-1.011.189-1.567.35-3.186.431-4.752.08-.875-.564-1.699-1.416-1.913-.882-.266-1.708-.133-2.32.612a3.83 3.83 0 0 0-.775 1.222c-.511 1.352-.907 2.733-1.307 4.115-.216.664-.267 1.354-.373 2.07-.667.105-1.335.16-1.979.266-.64.133-1.012.69-.958 1.222.051.585.531 1.01 1.225 1.01.483.024.935 0 1.496 0h-.002Zm20.475 2.573c-.989 2.975-2.826 1.647-3.391.028-.453-1.273-.267-3.187-.106-4.435.081-.796.348-2.07-1.012-2.417-1.307-.317-1.975.215-2.642 1.487-.617 1.675-.832 3.877-.589 5.63.134 1.25.64 2.335 1.495 3.291 1.282 1.382 2.854 1.968 4.753 1.515.318-.106.612-.211 1.091-.347.161 2.365-.824 4.49-2.559 2.206-.698-.664-1.416-.399-2.057.106-.588.426-.749 1.116-.533 1.912.318.93.932 1.593 1.625 2.23 2.722 2.206 6.621.238 7.954-2.788.617-1.487.801-3.08.751-4.673-.055-2.336-.134-4.592-.189-6.876-.054-.69-.078-1.328-.188-1.94-.345-2.045-3.254-2.045-3.658.055-.4 1.593-.212 3.347-.745 5.017Zm25.733 3.003c.106.98.134 1.99.24 2.975.11.742.216 1.484.534 2.12.428.984 1.683 1.011 2.35.187a4.11 4.11 0 0 0 .695-1.406c.773-3.853 1.013-7.543 1.39-11.631.103-1.25.156-2.499.236-3.717.431-3.904-4.911-4.568-5.445-.585-.051.663-.081 1.3-.081 1.937-.024 2.045.109 4.142 0 6.215-1.52.188-2.987 0-4.427.188 0-.375-.028-.586 0-.851.105-2.205.266-4.435.32-6.664.052-1.515-.298-3.69-2.35-3.85-1.763-.133-2.884 1.592-3.018 3.424-.455 4.49-.079 8.976.428 13.435.081.878.32 1.832.667 2.655.267.8.988 1.116 1.762 1.066.8-.109 1.362-.558 1.577-1.355.103-.292.13-.585.158-.905.079-1.034.189-2.124.267-3.237h4.697v-.001Zm16.366-4.94c-.349-.133-.482-.214-.64-.214-3.1-1.114-6.727.558-7.904 3.639-.959 2.55.455 5.337 2.965 5.947 1.093.214 2.187.159 3.227-.266.778-.289 1.523-.663 2.297-1.007.134.16.266.32.372.449.829.746 1.923.664 2.564-.211a3.22 3.22 0 0 0 .481-1.116 21.36 21.36 0 0 0 .213-1.75c.161-2.019.266-4.065-.109-6.056-.345-1.78-1.226-3.213-2.826-4.17-2.457-1.51-5.15.027-5.981 1.726-.372.746-.237 1.436.298 1.913.533.48 1.279.452 1.92-.027.318-.21.64-.45.986-.637.748-.425 1.416-.184 1.788.637.134.293.213.613.35 1.143h-.001Zm-.722 4.221c-.773.586-1.546 1.14-2.536 1.3-.373.028-.907.188-1.119-.238-.642-1.274 3.283-2.866 3.655-1.062Zm11.16-6.586c-.136-.398-.215-.688-.372-1.007-.189-.664-.698-1.008-1.365-1.035-.612-.054-1.119.37-1.385 1.086-.079.27-.186.534-.216.773-.345 3.107-.399 6.185-.212 9.32.027.344.054.663.133.956.243 1.035 1.151 1.804 2.111 1.804.961 0 1.92-.715 2.109-1.804.105-.612.052-1.3.082-1.94 0-2.361 1.013-5.282 3.603-6.266 3.361-.848 2.772 5.26 2.292 7.169-.345 1.17.244 2.31 1.257 2.896.934.477 2.135.293 2.909-.504.454-.453.667-1.01.721-1.675.213-2.202.106-4.38-.348-6.531-.237-1.329-.773-2.495-1.626-3.503-1.417-1.702-3.151-2.365-5.338-1.886-1.577.293-3.018.981-4.352 2.148h-.003Zm23.467.187c-1.096.079-2.219-.051-3.179.214-5.205 1.193-6.751 6.373-3.392 9.93 1.365 1.381 4.191 2.256 6.676.769.134-.106.345-.188.507-.293.294.585.479 1.17.773 1.647.294.504.828.691 1.441.61.614-.052 1.042-.317 1.201-.821.186-.347.297-.773.297-1.143.079-2.707.157-5.47.237-8.152.134-2.417.242-4.779.933-7.169.11-.292.11-.608.083-.902-.24-1.62-2.272-2.495-3.843-1.62-.801.399-1.177 1.116-1.283 1.913a232.38 232.38 0 0 1-.451 5.018v-.001Zm-4.435 5.895c0-2.655 5.18-2.15 4.246-.08-1.095 2.364-3.979 3.743-4.246.08Z" clip-rule="evenodd"/></svg>