<svg xmlns="http://www.w3.org/2000/svg" width="283" height="95" fill="none" viewBox="0 0 283 95"><path fill="#000" d="M23.024 71.33c-3.098-.065-6.16-.337-9.125-1.327-2.616-.873-4.642-2.471-6.08-4.826-.225-.37-.376-.793-.013-1.096.334-.28.736-.42 1.241-.148 1.51.816 3.143 1.285 4.837 1.58 5.728 1 11.451.687 17.19.055 9.64-1.06 19.171-2.842 28.762-4.218 5.819-.834 11.63-1.759 17.462-2.482 4.645-.578 9.321-.837 13.995-.228 2.674.35 5.26.998 7.692 2.22 3.08 1.55 4.819 4.107 5.684 7.35.109.407.161.889-.262 1.073-.287.124-.759.073-1.049-.085-2.264-1.244-4.72-1.905-7.23-2.374-5.413-1.007-10.882-1.007-16.338-.606-6.764.498-13.526 1.065-20.273 1.78-7.81.829-15.599 1.889-23.402 2.78-4.345.495-8.715.655-13.09.552Z"/><path fill="#1A1A1A" d="M245.134 81.208a2.327 2.327 0 0 1-2.326-2.347c.093-10.858-.021-5.736-.021-11.057 0-5.671 1.161-10.697 8.12-15.467 6.958-4.77 10.489-5.171 14.982-10.425 3.218-3.764 6.06-6.7 7.466-6.7 2.231 0 1.625 3.3.91 5.529-1.871 5.83-10.856 9.79-8.278 11.08 2.578 1.29 10.697-6.186 11.083-16.368.387-10.182-2.062-11.728 1.288-13.404 3.35-1.677 6.316 9.28 3.223 20.236-3.093 10.956-6.443 16.239-16.239 23.2-4.285 3.334-9.451 4.138-8.995 13.283a2.325 2.325 0 0 1-2.321 2.443h-8.892v-.003Zm-11.552 0a2.327 2.327 0 0 0 2.326-2.347c-.093-10.858.021-5.736.021-11.057 0-5.671-1.16-10.697-8.119-15.467-6.959-4.77-10.49-5.171-14.983-10.425-3.217-3.764-6.059-6.7-7.466-6.7-2.231 0-1.624 3.3-.909 5.529 1.87 5.83 10.855 9.79 8.277 11.08-2.578 1.288-10.697-6.186-11.083-16.368-.386-10.182 2.062-11.728-1.288-13.404-3.35-1.677-6.316 9.28-3.223 20.236 3.094 10.956 6.443 16.239 16.239 23.2 4.285 3.334 9.451 4.138 8.995 13.283a2.325 2.325 0 0 0 2.322 2.443h8.891v-.003Zm5.774-65.219c-3.78-22.27-31.897-18.11-31.897-.19 0 11.006 10.013 15.656 31.897 38.986 21.884-23.33 31.898-27 31.898-38.985 0-17.923-28.118-22.081-31.898.189Z"/><path fill="#fff" d="M231.538 31.546a9.13 9.13 0 0 0-1.057-1.137c-3.601-3.202-10.508-16.674-10.876-15.11-.233 1 .091 1.791.396 2.788 3.032 8.946 6.674 11.628 12.369 15.488 1.422.894.093-.87-.832-2.029Z"/><path fill="#000" d="M28.923 14.953a.135.135 0 0 1 .013-.13.147.147 0 0 1 .116-.062h.257c.057 0 .106.033.13.085l5.002 12.008 2.042-4.904-2.915-6.997a.135.135 0 0 1 .013-.13.147.147 0 0 1 .117-.062h.256c.057 0 .106.033.13.085l2.678 6.433 2.68-6.433a.139.139 0 0 1 .129-.085h.256a.14.14 0 0 1 .117.062.136.136 0 0 1 .013.13l-2.915 6.997 2.042 4.904 5.002-12.008a.139.139 0 0 1 .13-.085h.256a.14.14 0 0 1 .117.062.137.137 0 0 1 .013.13l-5.26 12.624-.004.008c0 .005-.005.01-.008.015 0 0-.003.006-.005.006a.02.02 0 0 1-.01.01.108.108 0 0 1-.019.016c-.002 0-.008.005-.01.007-.008.006-.016.008-.023.01-.006 0-.008.003-.01.006-.014.002-.024.005-.037.005h-.257c-.013 0-.026 0-.039-.005-.005 0-.007 0-.01-.005-.008-.003-.015-.008-.023-.01-.005 0-.008-.006-.01-.008l-.019-.016-.01-.01s-.003-.006-.005-.006l-.008-.015c0-.003-.002-.005-.005-.008l-2.065-4.956-2.065 4.956-.005.008-.008.015s-.002.006-.005.006a.02.02 0 0 1-.01.01l-.018.016c-.003 0-.008.005-.01.007a.095.095 0 0 1-.024.01c-.005 0-.008.003-.01.006a.202.202 0 0 1-.037.005h-.256c-.013 0-.026 0-.04-.005-.004 0-.007 0-.01-.005-.007-.003-.015-.008-.023-.01-.005 0-.008-.006-.01-.008-.005-.006-.013-.01-.018-.016l-.01-.01s-.003-.006-.006-.006l-.008-.015c0-.003-.002-.005-.005-.008l-5.259-12.625h-.005Zm15.705 6.257a6.458 6.458 0 0 1 6.45-6.451 6.458 6.458 0 0 1 6.452 6.45 6.458 6.458 0 0 1-6.451 6.452 6.458 6.458 0 0 1-6.451-6.451Zm.516 0a5.943 5.943 0 0 0 5.935 5.935 5.943 5.943 0 0 0 5.935-5.935 5.943 5.943 0 0 0-5.935-5.936 5.943 5.943 0 0 0-5.935 5.936Zm14.241 6.313V14.875c0-.01.005-.023.01-.034v-.005l.016-.026s.002-.005.005-.005a.202.202 0 0 1 .026-.023h.005l.026-.013h.008a.152.152 0 0 1 .036-.005h6.26a4.66 4.66 0 0 1 4.655 4.655 4.64 4.64 0 0 1-3.055 4.373l3.024 3.646a.14.14 0 0 1-.109.228h-.308a.132.132 0 0 1-.107-.052l-3.036-3.663c-.347.08-.705.121-1.065.121h-5.88v3.451a.14.14 0 0 1-.14.14h-.24a.14.14 0 0 1-.139-.14h.008Zm.515-12.249v8.283h5.881a4.177 4.177 0 0 0 1.039-.13c.042-.01.083-.023.125-.034a4.162 4.162 0 0 0 2.976-3.974 4.145 4.145 0 0 0-4.14-4.14h-5.88v-.005Zm12.397 12.249V14.9a.14.14 0 0 1 .14-.14h.238a.14.14 0 0 1 .14.14v12.249h10.4a.14.14 0 0 1 .14.14v.235a.14.14 0 0 1-.14.14H72.438a.14.14 0 0 1-.14-.14h-.002Zm23.967-6.313a6.458 6.458 0 0 1-6.451 6.45h-4.464a.14.14 0 0 1-.14-.14V14.896a.14.14 0 0 1 .14-.14h4.464a6.458 6.458 0 0 1 6.45 6.45v.003Zm-10.54 5.935h4.089a5.943 5.943 0 0 0 5.935-5.936 5.943 5.943 0 0 0-5.935-5.935h-4.088v11.87Zm-59.179-5.742c-.363.104-.59.443-.684 1.02-.093.578-.192 2.091-.295 4.54-.07 1.637-.135 2.994-.19 4.072-.023.487-.01 2.057.042 4.71.052 2.65.07 4.12.052 4.402l-.037.453c-.015.2-.028.347-.036.443-.008.158-.02.324-.036.495-.093 1.26-.283 2.337-.567 3.233a10.4 10.4 0 0 1-2.055 3.731c-.386.464-.84.803-1.363 1.016a2.687 2.687 0 0 1-1.634.13c.362-.102.588-.444.678-1.022.091-.577.192-2.082.3-4.513.009-.212.017-.38.024-.507.008-.127.016-.29.023-.49l.024-.56c-.047 0-.12 0-.213.006-.095.005-.165.005-.212.005l-4.531.036c-.12 0-.293 0-.526.005-.233.005-.407.005-.526.005-.047 1.063-.122 1.91-.226 2.537-.03.204-.051.334-.06.39-.007.055-.043.231-.105.532a4.862 4.862 0 0 1-.184.684c-.06.158-.153.391-.277.702-.127.31-.26.56-.397.749a8.824 8.824 0 0 1-.536.655c-.22.249-.454.446-.702.59a4.73 4.73 0 0 1-.886.39 4.28 4.28 0 0 1-1.104.207 5.161 5.161 0 0 1-1.635-.166 4.64 4.64 0 0 1-1.505-.715 3.739 3.739 0 0 1-1.14-1.306c-.287-.534-.466-1.176-.536-1.925-.07-.746.031-1.614.306-2.596 0 .44.15.816.448 1.127a2 2 0 0 0 1.085.591c.425.083.85.101 1.275.052.425-.047.788-.21 1.086-.49a1.39 1.39 0 0 0 .448-1.057c0-.425 0-1.173-.005-2.249-.006-1.072-.01-2.38-.019-3.917-.007-1.539-.013-2.7-.013-3.487-.015-1.777-.015-2.78 0-3.01.008-.102.019-.254.029-.454.01-.2.02-.347.028-.443a4.08 4.08 0 0 1 .024-.236c.008-.054.015-.142.023-.259.008-.1.029-.508.065-1.215.036-.707.078-1.388.124-2.041.047-.653.101-1.213.166-1.677-1.047 1.425-1.933 3.15-2.656 5.182-.59 1.645-.96 3.485-1.108 5.524-.158 2.116.007 3.58.494 4.39.34.553.804.698 1.394.439-1.746.81-3.207 1.145-4.383 1.002-1.176-.142-2.101-.635-2.775-1.482-.674-.847-1.122-1.86-1.345-3.039a11.606 11.606 0 0 1-.093-3.676c.16-1.272.49-2.401.985-3.394a15.896 15.896 0 0 1 3.01-4.225c.723-.73 1.62-1.373 2.684-1.925a15.738 15.738 0 0 1 3.241-1.257 23.04 23.04 0 0 1 3.14-.608c1-.117 1.891-.153 2.679-.107a4.146 4.146 0 0 0-.873.024c.093 0 .249 0 .461-.006.213-.005.35-.01.412-.018a.842.842 0 0 0-.373.213c-.09.093-.171.264-.241.513a5.46 5.46 0 0 0-.16.932c-.037.373-.07.894-.107 1.565-.036.669-.072 1.443-.111 2.324-.07 1.637-.135 2.998-.19 4.083v.153a266.7 266.7 0 0 1 .084 4.036v.226a1085.914 1085.914 0 0 0 .082 5.852c.07 0 .177-.005.314-.013s.24-.01.313-.01a476.06 476.06 0 0 1 2.278-.029c1.015-.013 1.774-.02 2.277-.028.093 0 .236 0 .425-.005.189-.006.331-.006.425-.006.007-.134.018-.334.028-.6.01-.267.02-.464.029-.591.03-.56.02-2.15-.037-4.775-.054-2.624-.075-4.07-.06-4.337.009-.096.021-.243.037-.448l.036-.448c.008-.158.021-.324.037-.495.093-1.298.28-2.376.554-3.233a10.367 10.367 0 0 1 2.065-3.731c.386-.464.84-.803 1.363-1.016a2.686 2.686 0 0 1 1.634-.13h.016ZM1.407 35.388h.013c.111-.016.158-.075.142-.176a8.108 8.108 0 0 1-.06-.91c0-.111-.051-.166-.152-.166h-.013c-.104 0-.153.055-.153.166 0 .275.02.59.06.943.015.096.07.143.165.143h-.002Zm2.62 4.378c.077 0 .129-.039.152-.12.031-.1-.008-.168-.12-.199-.447-.124-.846-.39-1.191-.795-.347-.407-.593-.798-.743-1.174a9.283 9.283 0 0 1-.379-1.191c-.03-.101-.093-.143-.189-.117-.103.031-.142.093-.119.19.22.919.55 1.673.984 2.258.436.586.954.967 1.552 1.14l.024.013h.023l.005-.005Zm20.406-3.73v-6.703c0-.1-.054-.153-.165-.153-.112 0-.166.052-.166.153v6.702c0 .112.054.166.166.166.111 0 .165-.054.165-.166Zm0 1.994v-.614c0-.111-.054-.165-.165-.165-.112 0-.166.054-.166.165v.614c0 .112.054.166.166.166.111 0 .165-.054.165-.166Zm14.622 5.537c.016.487.14.863.373 1.127.23.264.526.404.879.42a3.05 3.05 0 0 0 1.108-.171 3.57 3.57 0 0 0 1.117-.633c.358-.29.643-.614.855-.966a36.13 36.13 0 0 1-.915 3.057c-.295.827-.572 1.485-.831 1.977-.26.492-.544.865-.855 1.122-.311.256-.606.42-.886.49s-.62.09-1.02.059a4.393 4.393 0 0 1-1.395-.332 3.258 3.258 0 0 1-1.062-.702 7.064 7.064 0 0 1-.738-.878 4.216 4.216 0 0 1-.513-.997 11.753 11.753 0 0 1-.3-.915 8.321 8.321 0 0 1-.172-.756c-.331.984-.7 1.81-1.109 2.479-.409.668-.81 1.153-1.204 1.45a3.197 3.197 0 0 1-1.228.591c-.425.094-.814.099-1.169.01a4.136 4.136 0 0 1-1.026-.406 4.67 4.67 0 0 1-1.321-1.057c-.764-.912-1.124-2.832-1.085-5.76 0-.134 0-1.398.005-3.8.005-2.399.005-3.635.005-3.705h4.52c0 .094-.004.648-.017 1.658a130.448 130.448 0 0 0 0 4.49c.013.803.033 1.402.064 1.793.047.622.257 1.122.625 1.497.417.425.847.48 1.287.166.544-.386.985-1.274 1.322-2.666 0-.007.007-.02.023-.036 0-.07 0-.176-.005-.319-.005-.142-.005-.25-.005-.331.054-2.847.111-4.938.165-6.267h4.532c0 .41-.01 1.793-.029 4.153-.02 2.36-.018 3.746.005 4.155v.003Zm-9.194 5.43c.054-.096.03-.168-.07-.225a3.343 3.343 0 0 1-.79-.66 4.336 4.336 0 0 1-.897-1.654c-.03-.1-.093-.137-.189-.106-.104.031-.142.096-.12.19.198.675.52 1.269.97 1.782.282.323.575.567.873.73.031.016.06.023.083.023.054 0 .104-.028.142-.082l-.002.002Zm1.039.378c.111 0 .158-.054.142-.165-.015-.125-.07-.177-.166-.153a1.13 1.13 0 0 1-.438-.037c-.093-.015-.158.029-.189.13-.023.096.021.158.13.19.173.03.303.046.388.046.016 0 .04 0 .07-.005l.06-.006h.003Z"/><path fill="#000" d="M62.73 43.483c-.008.591.158 1.021.495 1.293.339.272.738.384 1.204.337.464-.047.946-.21 1.446-.484.5-.275.899-.617 1.197-1.026a37.659 37.659 0 0 1-1.145 2.89c-.355.78-.69 1.397-1.003 1.853-.316.456-.624.798-.933 1.026-.305.228-.619.363-.932.402a3.75 3.75 0 0 1-1.016-.023 4.024 4.024 0 0 1-1.303-.412 4.49 4.49 0 0 1-.969-.666 3.608 3.608 0 0 1-.679-.892 7.321 7.321 0 0 1-.443-.92 6.22 6.22 0 0 1-.259-.927 9.358 9.358 0 0 1-.135-.743 13.841 13.841 0 0 1-.046-.526 25.01 25.01 0 0 1-.024-1.972c.016-.834.032-1.352.047-1.557a20.97 20.97 0 0 0 .096-1.912c0-.235-.114-.448-.342-.637-.363-.306-.764-.251-1.205.166-.463.432-.896 1.243-1.298 2.43.016.819.024 1.5.024 2.041 0 .542-.016 1.236-.047 2.078-.031.842-.057 1.49-.078 1.94-.02.454-.046 1-.083 1.64l-.064 1.174h-4.521c-.008-.432.01-2.324.052-5.671.044-3.347.064-5.07.064-5.163 0-.236-.114-.449-.342-.638-.362-.298-.764-.243-1.204.166-.63.59-1.2 1.865-1.713 3.824-.015 4.163-.013 6.573.013 7.236h-4.687c.008-.306.034-2.637.078-6.992s.078-6.876.101-7.56h4.531c0 1.243-.005 2.389-.013 3.435.363-.795.765-1.453 1.21-1.977.446-.523.884-.888 1.316-1.098a3.855 3.855 0 0 1 1.317-.373c.445-.039.86.013 1.246.16.386.146.74.332 1.067.56.327.228.601.482.821.762.22.28.373.552.462.821.07.22.13.477.176.767.331-.707.691-1.29 1.08-1.746.389-.456.764-.778 1.127-.961.363-.184.733-.29 1.114-.32.38-.028.728.011 1.039.112.31.101.614.241.91.42.295.179.533.347.714.508.182.16.335.316.462.466.157.181.295.41.411.684.12.275.218.542.296.803.078.262.142.58.194.961.052.381.09.7.12.956.028.257.043.588.051.998.008.41.013.702.013.878 0 .176 0 .45-.005.821-.005.37-.005.568-.005.591v-.003Zm-11.39-7.246c.04-.1.014-.174-.082-.212a4.46 4.46 0 0 0-.378-.096c-.112-.023-.174.02-.19.13-.015.11.029.173.13.189.142.023.243.046.306.07a.135.135 0 0 0 .06.012c.077 0 .129-.03.152-.096l.003.003Zm2.537 2.609c.101-.031.142-.096.12-.19a3.29 3.29 0 0 0-.744-1.468 3.231 3.231 0 0 0-1.345-.938c-.096-.039-.166-.008-.212.093-.04.096-.008.166.093.213.471.173.88.453 1.228.844.347.389.57.83.673 1.317.016.088.068.129.153.129h.037-.003Zm4.956-2.609c.039-.1.013-.174-.083-.212a4.467 4.467 0 0 0-.378-.096c-.111-.023-.174.02-.19.13-.015.11.03.173.13.189.143.023.244.046.306.07a.135.135 0 0 0 .06.012c.077 0 .13-.03.153-.096l.002.003Zm2.537 2.609c.1-.031.142-.096.119-.19a3.29 3.29 0 0 0-.744-1.468 3.23 3.23 0 0 0-1.344-.938c-.086-.039-.153-.008-.2.093-.039.096-.008.166.096.213a3 3 0 0 1 1.215.844c.347.389.57.83.674 1.317.015.088.067.129.152.129h.037-.005Z"/><path fill="#000" d="M79.406 43.567c.016.487.143.862.378 1.127.236.264.529.401.879.411.35.013.72-.046 1.109-.176.388-.13.764-.34 1.121-.632.358-.29.643-.614.855-.969-.316 1.213-.616 2.228-.91 3.044-.29.819-.566 1.472-.825 1.959-.26.487-.545.857-.856 1.109-.31.251-.606.414-.885.49-.28.075-.625.11-1.034.11-.48 0-.925-.08-1.335-.24a3.65 3.65 0 0 1-1.02-.583 3.92 3.92 0 0 1-.749-.863 6.7 6.7 0 0 1-.526-.932 7.305 7.305 0 0 1-.337-.967 9.263 9.263 0 0 1-.194-.78c-.028-.15-.057-.331-.088-.544a16.477 16.477 0 0 1-.143-1.204c-.03.456-.06.826-.083 1.108a25.31 25.31 0 0 1-.129 1.14 10.67 10.67 0 0 1-.212 1.18c-.078.31-.192.652-.337 1.025-.145.373-.311.671-.495.891a2.33 2.33 0 0 1-.684.555c-.272.15-.575.225-.915.225-.748 0-1.502-.225-2.266-.673-1.345-.78-2.262-1.868-2.75-3.27a8.559 8.559 0 0 1-.37-3.547 9.892 9.892 0 0 1 .985-3.44c.228-.448.5-.886.813-1.316.314-.43.679-.837 1.091-1.228a5.25 5.25 0 0 1 1.31-.923 4.079 4.079 0 0 1 1.46-.401c.51-.044 1.023.062 1.533.313.48.228.83.591 1.05 1.086a67.42 67.42 0 0 0 .046-1.404h4.544c0 .432-.013 1.736-.036 3.907-.023 2.17-.023 3.64 0 4.401l.005.01Zm-10.881-3.599c.062-.096.054-.168-.023-.225-.086-.055-.16-.047-.226.023a1.448 1.448 0 0 0-.2.342c-.038.093-.007.166.094.212a.136.136 0 0 0 .06.013c.07 0 .119-.03.142-.096.031-.077.083-.168.153-.272v.003Zm.378-.66a6.267 6.267 0 0 1 2.467-2.666c.093-.063.114-.138.06-.226-.055-.096-.13-.114-.226-.06a6.68 6.68 0 0 0-2.596 2.809c-.047.104-.023.174.07.212.015.008.044.01.083.01.07 0 .119-.028.142-.082v.002Zm5.855 1.297v-.388l-.07-.49a98.896 98.896 0 0 1-.07-.49c-.158-1.023-.468-1.637-.932-1.842-.41-.18-.811.016-1.205.591-.394.568-.689 1.373-.886 2.42-.433 2.306-.282 3.772.448 4.401.37.332.806.39 1.311.177.283-.125.48-.29.59-.495.151-.267.273-.632.374-1.09.098-.462.19-1 .272-1.623.083-.621.14-1.01.171-1.168l-.003-.003Z"/><path fill="#000" d="M95.34 43.626c.008.757.306 1.228.891 1.417.586.19 1.244.112 1.972-.23s1.295-.83 1.705-1.459c-.41 1.163-.8 2.158-1.174 2.98-.373.82-.723 1.484-1.05 1.99-.326.502-.66.888-1.002 1.157-.342.267-.67.436-.984.508-.314.07-.661.078-1.04.023a3.906 3.906 0 0 1-1.302-.42 4.434 4.434 0 0 1-.97-.683 3.82 3.82 0 0 1-.678-.91 7.078 7.078 0 0 1-.443-.937 6.729 6.729 0 0 1-.26-.944 9.325 9.325 0 0 1-.134-.756 15.305 15.305 0 0 1-.047-.531c-.03-.48-.038-1.15-.023-2.013.016-.863.031-1.391.047-1.588.062-.692.093-1.337.093-1.935 0-.244-.114-.462-.342-.65-.363-.306-.759-.257-1.192.152-.637.606-1.212 1.904-1.722 3.894-.016 4.249-.014 6.705.012 7.365h-4.686c.008-.305.033-2.676.078-7.111.043-4.433.077-6.993.1-7.676h4.532c0 1.204-.005 2.32-.013 3.352.331-.772.692-1.407 1.085-1.907.394-.5.775-.852 1.145-1.062.37-.207.75-.332 1.14-.373a2.584 2.584 0 0 1 1.063.096c.318.103.626.246.927.43.298.184.544.36.73.526.19.165.348.326.472.484.205.244.378.568.518.97.143.4.249.79.324 1.162.075.373.13.832.166 1.368.036.54.057.961.065 1.262.007.303.01.705.005 1.205-.005.5-.005.78-.005.844h-.003Zm-3.907-7.389c.04-.1.013-.173-.083-.212a2.115 2.115 0 0 0-.365-.096.15.15 0 0 0-.12.029.166.166 0 0 0-.07.1c-.015.112.03.174.13.19.127.023.226.046.296.07a.16.16 0 0 0 .07.013c.07 0 .119-.031.142-.096v.002Zm2.55 2.61c.1-.032.142-.097.119-.19a3.29 3.29 0 0 0-.744-1.469 3.231 3.231 0 0 0-1.344-.938c-.096-.038-.166-.007-.213.094-.039.096-.008.165.093.212.464.174.87.454 1.215.845.348.388.57.829.674 1.316.016.088.07.13.166.13h.036-.002Z"/><path fill="#000" d="M104.058 33.023a2.744 2.744 0 0 1-2.013.831 2.74 2.74 0 0 1-2.013-.831 2.741 2.741 0 0 1-.832-2.013c0-.788.277-1.459.832-2.013a2.74 2.74 0 0 1 2.013-.832c.787 0 1.458.277 2.013.832.554.554.831 1.225.831 2.013 0 .787-.277 1.458-.831 2.013Zm.23 10.544c.008.795.298 1.285.868 1.469.57.184 1.197.098 1.884-.26.684-.357 1.215-.839 1.593-1.445a40.543 40.543 0 0 1-.966 3.057c-.306.827-.596 1.488-.868 1.982-.272.495-.565.87-.878 1.127-.316.257-.614.42-.897.49a3.24 3.24 0 0 1-1.015.06 4.137 4.137 0 0 1-1.327-.324 3.944 3.944 0 0 1-1.01-.61 3.856 3.856 0 0 1-.731-.854 7.128 7.128 0 0 1-.508-.915 6.12 6.12 0 0 1-.318-.927 8.196 8.196 0 0 1-.176-.749c-.024-.15-.052-.326-.083-.531a19.185 19.185 0 0 1-.2-3.611c.016-.456.034-1.451.052-2.98.02-1.531.044-2.627.078-3.288h4.544c-.047 4.122-.06 6.895-.036 8.309h-.006Zm-.909 5.43c.054-.096.036-.168-.06-.225a3.348 3.348 0 0 1-.79-.66 4.33 4.33 0 0 1-.896-1.654c-.031-.1-.099-.137-.2-.106-.103.031-.137.096-.106.19.189.668.508 1.26.956 1.782.283.324.575.567.873.73a.19.19 0 0 0 .083.024c.055 0 .101-.029.143-.083l-.003.002Zm1.039.379a.168.168 0 0 0 .119-.047.13.13 0 0 0 .036-.12.155.155 0 0 0-.051-.116.149.149 0 0 0-.125-.036 1.996 1.996 0 0 1-.438-.036c-.093-.016-.158.028-.189.13-.023.095.021.157.13.188.173.031.303.047.388.047.016 0 .039 0 .07-.005l.06-.005Z"/><path fill="#000" d="M112.514 43.554c.015.487.14.865.373 1.132.23.267.523.41.873.425.35.015.72-.042 1.109-.171.388-.13.761-.34 1.121-.627.358-.288.643-.609.855-.961-.316 1.212-.616 2.228-.909 3.052-.29.82-.567 1.482-.832 1.976-.264.495-.549.87-.855 1.122-.305.252-.601.412-.878.485-.28.07-.619.09-1.021.06a4.473 4.473 0 0 1-1.181-.242 3.205 3.205 0 0 1-.943-.518 6.428 6.428 0 0 1-.72-.679 3.538 3.538 0 0 1-.544-.808c-.151-.303-.275-.57-.379-.803a4.323 4.323 0 0 1-.253-.78 31.469 31.469 0 0 1-.143-.632 9.425 9.425 0 0 1-.078-.448 19.776 19.776 0 0 1-.272-3.612c.008-.432.039-3.124.096-8.072-.243.1-.435.18-.572.235-.138.055-.327.12-.568.19a2 2 0 0 1-.567.1c-.14-.002-.329-.013-.573-.028a1.095 1.095 0 0 1-.518-.254 1.208 1.208 0 0 1-.342-.55c-.078-.235-.067-.561.036-.979.104-.417.304-.888.602-1.417-.039.15-.019.322.064.513.083.192.226.373.43.542.205.168.477.287.814.355.339.067.741.049 1.205-.052.023-2.117.046-3.428.069-3.93h4.532c0 1.078-.005 2.088-.013 3.034 1.163-.213 2.062-.184 2.692.082.282.125.432.389.448.79.015.402-.07.848-.259 1.335a7.7 7.7 0 0 1-.757 1.45c.086-.645-.062-1.145-.448-1.5-.386-.354-.948-.575-1.687-.66-.038 6.42-.044 10.036-.013 10.845h.006Zm-.721 5.194c.055-.096.031-.168-.07-.225a3.348 3.348 0 0 1-.79-.66 4.207 4.207 0 0 1-.886-1.654c-.031-.111-.098-.15-.199-.119-.112.031-.151.099-.117.2.197.676.518 1.27.967 1.782.282.324.575.567.873.73a.19.19 0 0 0 .082.024c.055 0 .102-.029.143-.083l-.003.005Zm1.039.379c.112-.016.158-.076.143-.177-.016-.111-.07-.158-.166-.142a1.995 1.995 0 0 1-.438-.036c-.093-.016-.158.028-.189.13-.023.095.021.157.13.188.126.024.256.036.388.036h.132Z"/><path fill="#000" d="M129.437 43.567c.015.487.142.862.378 1.127.236.264.528.401.878.411.35.013.72-.046 1.109-.176a3.56 3.56 0 0 0 1.122-.632c.357-.29.642-.614.855-.969-.316 1.213-.617 2.228-.91 3.044-.29.819-.567 1.472-.826 1.959-.259.487-.544.857-.855 1.109-.311.251-.606.414-.886.49a4.06 4.06 0 0 1-1.034.11c-.479 0-.925-.08-1.334-.24a3.656 3.656 0 0 1-1.021-.583 3.924 3.924 0 0 1-.749-.863 6.593 6.593 0 0 1-.525-.932 7.162 7.162 0 0 1-.337-.967 8.983 8.983 0 0 1-.195-.78 14.42 14.42 0 0 1-.088-.544 16.71 16.71 0 0 1-.142-1.204c-.031.456-.06.826-.083 1.108-.023.283-.067.664-.13 1.14a10.44 10.44 0 0 1-.212 1.18c-.08.31-.192.652-.337 1.025-.145.373-.311.671-.495.891-.184.22-.412.407-.684.555-.272.15-.577.225-.914.225-.746 0-1.503-.225-2.267-.673-1.345-.78-2.262-1.868-2.749-3.27a8.606 8.606 0 0 1-.373-3.547 9.824 9.824 0 0 1 .985-3.44c.228-.448.5-.886.813-1.316.314-.43.679-.837 1.091-1.228.412-.392.85-.697 1.311-.923a4.075 4.075 0 0 1 1.458-.401c.511-.044 1.024.062 1.534.313.479.228.829.591 1.049 1.086a79.305 79.305 0 0 0 .047-1.404h4.544c0 .432-.01 1.736-.036 3.907-.024 2.17-.024 3.64 0 4.401l.008.01Zm-10.882-3.599c.063-.096.055-.168-.023-.225-.085-.055-.161-.047-.225.023a1.447 1.447 0 0 0-.2.342c-.039.093-.008.166.093.212a.14.14 0 0 0 .06.013c.07 0 .119-.03.143-.096a1.5 1.5 0 0 1 .152-.272v.003Zm.379-.66a6.266 6.266 0 0 1 2.466-2.666c.093-.063.114-.138.06-.226-.055-.096-.13-.114-.226-.06a6.686 6.686 0 0 0-2.596 2.809c-.046.104-.023.174.07.212.016.008.044.01.083.01.07 0 .119-.028.143-.082v.002Zm5.855 1.297v-.388l-.07-.49-.07-.49c-.158-1.023-.469-1.637-.933-1.842-.409-.18-.811.016-1.205.591-.393.568-.689 1.373-.886 2.42-.432 2.306-.282 3.772.449 4.401.37.332.805.39 1.311.177.282-.125.479-.29.59-.495.151-.267.272-.632.373-1.09.099-.462.189-1 .272-1.623.083-.621.14-1.01.171-1.168l-.002-.003Z"/><path fill="#000" d="M144.437 38.066c.143.417.295.788.461 1.11.166.323.373.618.619.89.249.272.508.446.785.526.275.08.601.037.98-.124.378-.16.774-.467 1.191-.915-.699 1.29-1.38 2.309-2.041 3.057-.661.75-1.241 1.226-1.741 1.436-.5.21-.974.23-1.422.064-.34-.119-.627-.386-.868-.803a4.61 4.61 0 0 1-.508-1.251 49.926 49.926 0 0 1-.342-1.58 19.432 19.432 0 0 0-.314-1.37 1.093 1.093 0 0 0-.507-.625c-.511-.306-1.026-.125-1.547.541-.541.7-1.034 1.884-1.474 3.552-.016 4.163-.013 6.573.01 7.236h-4.684c.008-.306.034-2.637.078-6.992s.078-6.876.101-7.56h4.531c0 1.189-.005 2.282-.013 3.28.34-.772.702-1.41 1.091-1.912.389-.503.772-.853 1.15-1.05a2.706 2.706 0 0 1 1.15-.318c.389-.016.754.06 1.091.225.337.166.656.384.951.656.295.272.549.575.762.91.212.333.381.673.507 1.02l.003-.003Zm-2.277 1.474c.023.078.075.12.153.12.007 0 .015 0 .023-.006.008-.005.015-.005.023-.005.101-.03.138-.098.106-.2l-.106-.341c-.031-.101-.098-.138-.199-.106-.104.03-.138.098-.106.199l.106.342v-.003Zm1.663 3.622c.039-.1.013-.173-.083-.212-.189-.096-.344-.298-.466-.614-.122-.316-.293-.886-.513-1.713l-.13-.508c-.031-.11-.098-.15-.199-.119s-.138.099-.106.2l.129.508c.236.88.425 1.492.567 1.834.143.342.34.572.591.692a.205.205 0 0 0 .06.023c.077 0 .129-.031.153-.096l-.003.005Z"/><path fill="#000" d="M151.618 33.023a2.74 2.74 0 0 1-2.013.831 2.744 2.744 0 0 1-2.013-.831 2.743 2.743 0 0 1-.831-2.013c0-.788.277-1.459.831-2.013a2.743 2.743 0 0 1 2.013-.832 2.74 2.74 0 0 1 2.013.832 2.74 2.74 0 0 1 .832 2.013 2.74 2.74 0 0 1-.832 2.013Zm.231 10.544c.008.795.298 1.285.868 1.469.57.184 1.197.098 1.883-.26.684-.357 1.215-.839 1.594-1.445a39.511 39.511 0 0 1-.969 3.057c-.306.827-.596 1.488-.868 1.982-.272.495-.565.87-.878 1.127-.317.257-.614.42-.897.49a3.24 3.24 0 0 1-1.015.06 4.137 4.137 0 0 1-1.327-.324 3.944 3.944 0 0 1-1.01-.61 3.856 3.856 0 0 1-.731-.854 7.128 7.128 0 0 1-.508-.915 6.12 6.12 0 0 1-.318-.927 8.054 8.054 0 0 1-.176-.749c-.024-.15-.052-.326-.083-.531a19.161 19.161 0 0 1-.2-3.611c.016-.456.034-1.451.052-2.98.021-1.531.044-2.627.078-3.288h4.544c-.047 4.122-.06 6.895-.036 8.309h-.003Zm-.909 5.43c.054-.096.036-.168-.06-.225a3.348 3.348 0 0 1-.79-.66 4.346 4.346 0 0 1-.897-1.654c-.031-.1-.098-.137-.199-.106-.101.031-.137.096-.106.19.189.668.508 1.26.956 1.782.282.324.575.567.873.73a.19.19 0 0 0 .083.024c.054 0 .101-.029.142-.083l-.002.002Zm1.039.379a.17.17 0 0 0 .119-.047.13.13 0 0 0 .036-.12.152.152 0 0 0-.052-.116.145.145 0 0 0-.124-.036 1.963 1.963 0 0 1-.435-.036c-.096-.016-.158.028-.19.13-.023.095.021.157.13.188.174.031.303.047.389.047.015 0 .038 0 .07-.005l.059-.005h-.002Z"/><path fill="#000" d="M168.303 43.567c.016.487.143.862.379 1.127.235.264.528.401.878.411.35.013.72-.046 1.109-.176a3.59 3.59 0 0 0 1.121-.632 3.68 3.68 0 0 0 .855-.969c-.316 1.213-.616 2.228-.909 3.044-.29.819-.567 1.472-.826 1.959-.26.487-.544.857-.855 1.109-.311.251-.607.414-.886.49a4.06 4.06 0 0 1-1.034.11c-.479 0-.925-.08-1.334-.24a3.642 3.642 0 0 1-1.021-.583 3.924 3.924 0 0 1-.749-.863 6.711 6.711 0 0 1-.526-.932 7.303 7.303 0 0 1-.337-.967 9.517 9.517 0 0 1-.194-.78 14.42 14.42 0 0 1-.088-.544 14.673 14.673 0 0 1-.142-1.204c-.032.456-.06.826-.083 1.108a27.17 27.17 0 0 1-.13 1.14 10.67 10.67 0 0 1-.212 1.18c-.078.31-.192.652-.337 1.025-.145.373-.311.671-.495.891-.184.22-.412.407-.684.555-.272.15-.575.225-.914.225-.749 0-1.503-.225-2.267-.673-1.345-.78-2.262-1.868-2.752-3.27a8.556 8.556 0 0 1-.37-3.547 9.844 9.844 0 0 1 .984-3.44 9.294 9.294 0 0 1 1.904-2.544c.412-.392.85-.697 1.311-.923a4.086 4.086 0 0 1 1.459-.401c.513-.044 1.023.062 1.534.313.479.228.831.591 1.052 1.086.007-.181.018-.43.028-.749.01-.319.018-.536.018-.655h4.544c0 .432-.013 1.736-.036 3.907-.023 2.17-.023 3.64 0 4.401l.005.01Zm-10.881-3.599c.062-.096.055-.168-.023-.225-.086-.055-.161-.047-.226.023a1.477 1.477 0 0 0-.199.342c-.039.093-.008.166.096.212a.133.133 0 0 0 .059.013c.07 0 .117-.03.14-.096.031-.077.083-.168.153-.272v.003Zm.378-.66a6.25 6.25 0 0 1 2.467-2.666c.096-.063.114-.138.059-.226-.054-.096-.129-.114-.225-.06a6.68 6.68 0 0 0-2.596 2.809c-.047.104-.023.174.07.212.016.008.044.01.083.01.07 0 .116-.028.142-.082v.002Zm5.853 1.297v-.388l-.07-.49-.07-.49c-.158-1.023-.469-1.637-.933-1.842-.409-.18-.811.016-1.204.591-.394.568-.69 1.373-.886 2.42-.433 2.306-.283 3.772.448 4.401.37.332.806.39 1.311.177.282-.125.479-.29.59-.495.151-.267.272-.632.373-1.09.099-.462.19-1 .272-1.623.083-.621.14-1.01.171-1.168l-.002-.003Z"/><path fill="#000" d="M184.236 43.626c.007.757.305 1.228.891 1.417.585.19 1.243.112 1.971-.23s1.296-.83 1.705-1.459a37.041 37.041 0 0 1-1.173 2.98c-.374.82-.726 1.484-1.052 1.99-.327.505-.661.888-1.003 1.157-.342.267-.671.436-.984.508-.317.07-.661.078-1.039.023-.48-.07-.915-.21-1.303-.42a4.353 4.353 0 0 1-.967-.683 3.838 3.838 0 0 1-.679-.91 7.142 7.142 0 0 1-.443-.937 6.785 6.785 0 0 1-.259-.944 9.053 9.053 0 0 1-.134-.756 15.21 15.21 0 0 1-.047-.531c-.031-.48-.039-1.15-.023-2.013.015-.863.031-1.391.046-1.588a21.78 21.78 0 0 0 .094-1.935c0-.244-.114-.462-.342-.65-.363-.306-.76-.257-1.192.152-.638.606-1.213 1.904-1.723 3.894-.016 4.249-.013 6.705.01 7.365h-4.684c.008-.305.034-2.676.078-7.111.044-4.433.078-6.993.101-7.676h4.531c0 1.204-.005 2.32-.01 3.352.331-.772.692-1.407 1.085-1.907.394-.5.775-.852 1.146-1.062.37-.207.748-.332 1.139-.373a2.587 2.587 0 0 1 1.063.096c.318.1.627.246.927.43.298.184.544.36.731.526.189.165.347.326.471.484.205.244.378.568.521.97.142.4.249.79.324 1.162.075.373.129.832.166 1.368.036.54.057.961.064 1.262.008.303.011.705.006 1.205-.006.5-.006.78-.006.844h-.007Zm-3.907-7.389c.039-.1.01-.173-.083-.212a2.143 2.143 0 0 0-.365-.096.15.15 0 0 0-.12.029.17.17 0 0 0-.07.1c-.015.112.029.174.13.19.124.023.225.046.295.07a.161.161 0 0 0 .07.013c.07 0 .117-.031.143-.096v.002Zm2.549 2.61c.101-.032.143-.097.119-.19a3.29 3.29 0 0 0-.743-1.469 3.237 3.237 0 0 0-1.345-.938c-.096-.038-.166-.007-.212.094-.039.096-.008.165.096.212.463.174.87.454 1.215.845.347.388.57.829.673 1.316.016.088.07.13.166.13h.036-.005ZM135.41 86.216c-.479-.272-.85-.782-1.109-1.531-.261-.749-.474-2-.64-3.752-.124-1.165-.23-2.17-.313-3.015-.083-.845-.171-1.886-.267-3.125a969.86 969.86 0 0 1-.391-5.453c-.083-1.293-.179-1.943-.282-1.954-.104-.01-.314.61-.625 1.86-1.041 4.166-2.109 7.418-3.202 9.752-1.093 2.334-2.298 3.98-3.609 4.938-1 .666-1.969 1-2.907 1-.417 0-.834-.062-1.248-.186-1.314-.459-2.355-1.459-3.125-3-.793-1.731-1.218-3.252-1.282-4.563-.063-1.313-.094-2.166-.094-2.562 0-1.834.197-3.645.594-5.438.458-2.207 1.145-4.135 2.062-5.783 1.272-2.27 2.824-3.844 4.656-4.717.79-.332 1.427-.51 1.906-.531.48-.021.752-.032.814-.032.834 0 1.583.135 2.249.407.186.083.347.145.484.187.135.041.212.062.233.062.062 0 .14-.135.233-.407.094-.272.192-.635.298-1.093.021-.207.083-.552.187-1.031.103-.48.217-.99.344-1.531.104-.542.236-1.177.392-1.907.155-.73.287-1.386.391-1.97.103-.561.202-1.082.298-1.561.093-.48.16-.814.202-1 .062-.252.155-.687.282-1.314l.187-.876c.248-1.145.495-1.953.733-2.422a2.14 2.14 0 0 1 1.047-1.015 2.566 2.566 0 0 1 1.155-.283c.207 0 .417.031.624.093.583.187 1.063.573 1.438 1.156l.376.655v2.938c0 .834-.01 2.708-.031 5.625a2145.02 2145.02 0 0 1-.093 9.624 1231.18 1231.18 0 0 0-.031 8.156c0 2.311.01 4.179.031 5.656.062 2.958.207 5.02.437 6.186.166.98.249 1.583.249 1.814v.438c0 .334-.062.603-.186.813-.272.438-.563.702-.876.798-.314.093-.562.14-.749.14-.293 0-.572-.083-.844-.249l.002.003Zm-12.376-7.345c1.29-1.583 2.752-5.417 4.376-11.5.251-.917.407-1.547.469-1.891.062-.345.093-.599.093-.765a.966.966 0 0 0-.031-.282c-.062-.187-.21-.345-.438-.469-.396-.249-.772-.376-1.124-.376-.249 0-.49.073-.718.218-.52.314-.989.793-1.407 1.438-.792 1.124-1.417 2.541-1.875 4.251-.417 1.666-.638 2.98-.656 3.938-.02.959-.031 1.48-.031 1.562 0 1.687.176 3.032.531 4.032.083.207.166.313.252.313h.031c.103-.02.282-.176.531-.469h-.003Zm36.439 8.469c-1.083-.331-1.979-1.238-2.687-2.72-.23-.48-.5-1.17-.813-2.078a74.621 74.621 0 0 1-.814-2.484l-.186-.656a8.769 8.769 0 0 0-.218-.782 64.67 64.67 0 0 0-.264-1.093c-.114-.459-.225-.907-.329-1.345-.104-.417-.192-.78-.267-1.093a8.866 8.866 0 0 0-.14-.562c-.02-.104-.052-.156-.093-.156-.166 0-.521.552-1.062 1.656-1.166 2.355-2.231 4.041-3.187 5.062-.917.959-1.717 1.51-2.407 1.656-.686.145-1.155.217-1.406.217-.897 0-1.772-.386-2.625-1.155-.855-.876-1.417-2-1.686-3.376-.272-1.376-.407-2.604-.407-3.687 0-.896.062-1.824.186-2.782.542-3.876 1.728-6.907 3.563-9.094.834-.979 1.748-1.702 2.751-2.17 1-.47 1.979-.703 2.938-.703.186 0 .386.01.593.031 1.145.125 2.239.645 3.283 1.562a8.164 8.164 0 0 1 1.406 1.672c.355.572.656 1.287.907 2.14.104.313.218.608.345.89.124.283.238.485.344.61.625.665 1.125 2.124 1.5 4.375.042.293.094.604.156.938.041.251.083.459.124.625.062.313.156.834.283 1.562.041.292.093.583.155.875.687 3.731 1.29 6.156 1.814 7.283.082.145.186.324.313.531.124.21.238.396.345.562.331.5.5 1 .5 1.5 0 .249-.042.49-.125.718-.228.73-.741 1.218-1.531 1.469a3.04 3.04 0 0 1-.562.093h-.187a1.59 1.59 0 0 1-.5-.093l-.01.003Zm-12.187-11.53c.145-.228.36-.604.64-1.124.282-.521.567-1.063.86-1.625a78.14 78.14 0 0 1 2.687-4.907c.145-.228.217-.437.217-.624v-.124c-.041-.228-.209-.51-.5-.845-.272-.355-.562-.531-.875-.531-.293 0-.604.176-.938.531-.855.876-1.567 2.166-2.14 3.876-.573 1.707-.86 3.386-.86 5.031 0 .73.031 1.109.093 1.14a.378.378 0 0 0 .124.047c.125 0 .355-.283.687-.845h.005Zm32.218 16.623c-.165-.668-.349-1.767-.546-3.298-.2-1.53-.35-3.036-.454-4.515-.041-.5-.082-1.057-.124-1.671a72.311 72.311 0 0 0-.124-1.61 104.98 104.98 0 0 1-.156-2.14c-.062-.947-.124-1.911-.186-2.89a52.818 52.818 0 0 0-.156-2.485c-.062-.676-.114-1.047-.155-1.109h-.031c-.083 0-.21.168-.376.5-1.249 2.69-2.231 4.63-2.938 5.83-.71 1.199-1.417 2.14-2.124 2.828-1.208 1.169-2.109 1.762-2.702 1.783-.594.02-.912.03-.954.03-1.062 0-2.021-.406-2.876-1.217-.896-.834-1.593-1.979-2.093-3.438-.751-2.417-1.124-5.062-1.124-7.938 0-1.186.062-2.407.186-3.655.355-3.166.897-5.407 1.625-6.718.666-1.124 1.254-1.712 1.767-1.764.51-.052.818-.078.922-.078.751 0 1.396.272 1.938.813.417.459.624 1 .624 1.625 0 .272-.041.562-.124.875a4.353 4.353 0 0 0-.125.5c-.082.252-.155.48-.217.687-.521 1.938-.824 3.715-.907 5.33-.083 1.613-.124 2.735-.124 3.36 0 1.75.134 3.303.406 4.655.166.814.304 1.246.407 1.298a.606.606 0 0 0 .218.078c.186 0 .448-.228.782-.687 1.187-1.5 2.98-5.197 5.376-11.093a125.492 125.492 0 0 1 1.329-3.205c.324-.739.578-1.275.767-1.61.186-.33.376-.603.562-.813.583-.707 1.249-1.062 2-1.062.104 0 .207.01.314.031 1.52.145 2.438 1.21 2.751 3.19.062.292.093 1.813.093 4.562 0 1.666-.01 3.772-.031 6.313-.02 2.021-.031 3.845-.031 5.47 0 2.458.021 4.479.062 6.062.062 2.624.187 4.531.376 5.718.041.417.062.793.062 1.124 0 .959-.199 1.614-.593 1.97-.314.292-.656.437-1.031.437-.252 0-.511-.062-.783-.187-.686-.334-1.176-.958-1.469-1.875l-.013-.01Z"/></svg>