<svg xmlns="http://www.w3.org/2000/svg" width="352" height="97" fill="none" viewBox="0 0 352 97"><path fill="#F6921E" d="M78.194 31.497s18.349 12.294-.524 38.779c-16.661 23.382-45.738 22.812-55.805 16.32C10.842 79.49 7.737 71.549 10.889 70.673c3.325 2.105 14.128 15.836 28.032 12.329 9.018-2.274-5.282-6.91-7.784-10.966-3.191-5.177-.22-8.532 2.58-7.479 8.657 12.306 12.64.813 23.486 4.144 10.846 3.335 32.538-19.128 20.991-37.2v-.004Z"/><path fill="#8BC53F" d="M58.429 65.716s30.001-12.809 5.6-60.452c2.885 20.793-21.517 26.056-40.41 6.579 4.722 21.846 43.428 25.793 34.814 53.873h-.004Z"/><path fill="#00ADEE" d="M56.678 56.065s-2.275-10.53-20.29-21.937C18.368 22.726 17.843 6.23 17.843 6.23s-4.025 6.144 1.398 19.478C24.664 39.042 17.142 49.223 0 44.31c6.472 11.23 19.417 7.196 33.764 4.914 14.343-2.282 22.918 6.842 22.918 6.842h-.004Z"/><path fill="#8BC53F" d="M57.091 10.775C57.916 5.72 54.498.95 49.457.122c-5.04-.827-9.796 2.601-10.62 7.658-.825 5.056 2.593 9.826 7.634 10.653s9.796-2.601 10.62-7.658Z"/><path fill="#00ADEE" d="M8.928 38.827c3.406 0 6.167-2.77 6.167-6.187 0-3.416-2.761-6.186-6.167-6.186-3.406 0-6.167 2.77-6.167 6.186 0 3.417 2.76 6.187 6.167 6.187Z"/><path fill="#E6E7E8" d="M89.04 50.625s-3.324 19.046-20.118 32.113c-16.97 13.206-39.183 12.282-48.283 5.967 13.818 15.444 42.86 7.239 56.33-7.546C91.158 65.586 89.04 50.625 89.04 50.625Z"/><path fill="#000" d="M121.059 35.668h12.667v3.672h-7.977v5.601h6.148v3.673h-6.148v8.472h-4.69V35.668Zm29.202 10.699c0 7.365-2.581 11.045-7.742 11.045-2.564 0-4.499-.939-5.802-2.816-1.304-1.878-1.954-4.62-1.954-8.229 0-7.353 2.58-11.03 7.741-11.03 2.521 0 4.448.92 5.771 2.762 1.324 1.842 1.986 4.596 1.986 8.268Zm-4.942 0c0-2.887-.223-4.807-.673-5.766-.451-.958-1.163-1.438-2.142-1.438-.979 0-1.68.484-2.126 1.442-.451.962-.674 2.883-.674 5.758s.223 4.733.666 5.727c.442.993 1.155 1.488 2.134 1.488.979 0 1.68-.475 2.134-1.425.454-.95.681-2.883.681-5.79v.004Zm8.211-10.699h4.691v12.239c0 1.724.078 2.93.235 3.61.157.679.482 1.194.979 1.543.493.35 1.104.526 1.821.526.783 0 1.402-.192 1.86-.58.458-.386.74-.9.845-1.537.106-.636.157-1.826.157-3.562V35.668h3.927v12.05c0 2.404-.137 4.2-.415 5.381-.278 1.183-.979 2.196-2.11 3.044-1.132.849-2.686 1.273-4.668 1.273-1.856 0-3.316-.31-4.377-.935a5.164 5.164 0 0 1-2.267-2.62c-.451-1.123-.674-3.106-.674-5.954V35.668h-.004Zm18.376 0h5.208l5.49 13.303V35.668h3.629v21.414h-4.189l-6.508-15.499v15.5h-3.63V35.667Zm18.173 0h5.051c2.189 0 3.971.295 5.341.888 1.371.589 2.467 1.68 3.293 3.272.822 1.59 1.237 3.739 1.237 6.449 0 1.925-.25 3.633-.751 5.122-.502 1.488-1.159 2.663-1.97 3.523-.814.856-1.731 1.434-2.753 1.724-1.022.295-2.298.44-3.833.44h-5.615V35.668Zm4.691 3.672v14.074h.799c1.088 0 1.93-.209 2.525-.629.595-.42 1.073-1.15 1.43-2.191.356-1.041.532-2.546.532-4.517 0-1.823-.196-3.225-.587-4.211-.392-.986-.885-1.654-1.476-2.003-.592-.35-1.398-.526-2.424-.526h-.799v.003Zm16.923-3.672h4.722l6.101 21.414h-4.797l-1.065-4.422h-6.014l-1.046 4.422h-4.311l6.414-21.414h-.004Zm4.076 13.319-2.157-8.775-2.072 8.775h4.229Zm5.56-13.319h13.309v4.018h-4.362v17.4h-4.691v-17.4h-4.252v-4.018h-.004Zm14.934 0h4.691v21.414h-4.691V35.668Zm23.462 10.699c0 7.365-2.58 11.045-7.741 11.045-2.564 0-4.499-.939-5.803-2.816-1.303-1.878-1.953-4.62-1.953-8.229 0-7.353 2.58-11.03 7.741-11.03 2.521 0 4.448.92 5.771 2.762 1.324 1.842 1.985 4.596 1.985 8.268Zm-4.941 0c0-2.887-.223-4.807-.674-5.766-.45-.958-1.162-1.438-2.141-1.438-.979 0-1.68.484-2.126 1.442-.451.962-.674 2.883-.674 5.758s.223 4.733.666 5.727c.442.993 1.155 1.488 2.134 1.488.979 0 1.679-.475 2.134-1.425.454-.95.681-2.883.681-5.79v.004Zm8.038-10.699h5.208l5.49 13.303V35.668h3.629v21.414h-4.189l-6.508-15.499v15.5h-3.63V35.667Zm24.148 0h4.691v17.4h6.879v4.018h-11.574V35.672l.004-.004Zm28.462 10.699c0 7.365-2.58 11.045-7.741 11.045-2.564 0-4.499-.939-5.803-2.816-1.303-1.878-1.953-4.62-1.953-8.229 0-7.353 2.58-11.03 7.741-11.03 2.521 0 4.448.92 5.771 2.762 1.324 1.842 1.985 4.596 1.985 8.268Zm-4.941 0c0-2.887-.223-4.807-.673-5.766-.451-.958-1.163-1.438-2.142-1.438-.979 0-1.68.484-2.126 1.442-.451.962-.674 2.883-.674 5.758s.223 4.733.666 5.727c.442.993 1.155 1.488 2.134 1.488.979 0 1.679-.475 2.134-1.425.454-.95.681-2.883.681-5.79v.004Zm15.705-.703h7.413v11.422h-1.986l-.61-2.447c-1.148 1.85-2.867 2.777-5.161 2.777-2.428 0-4.354-.959-5.78-2.88-1.421-1.92-2.134-4.5-2.134-7.74 0-3.524.701-6.317 2.103-8.37 1.402-2.055 3.473-3.084 6.218-3.084 4.37 0 6.821 2.447 7.35 7.34l-4.221.692c-.294-2.804-1.304-4.203-3.035-4.203-1.053 0-1.895.519-2.525 1.552-.631 1.037-.948 2.997-.948 5.884 0 2.56.309 4.367.924 5.412s1.515 1.567 2.706 1.567c1.907 0 2.866-1.418 2.878-4.25h-3.192v-3.672Zm25.804.703c0 7.365-2.581 11.045-7.741 11.045-2.565 0-4.499-.939-5.803-2.816-1.304-1.878-1.954-4.62-1.954-8.229 0-7.353 2.58-11.03 7.741-11.03 2.522 0 4.448.92 5.772 2.762 1.323 1.842 1.985 4.596 1.985 8.268Zm-4.942 0c0-2.887-.223-4.807-.673-5.766-.45-.958-1.163-1.438-2.142-1.438-.979 0-1.68.484-2.126 1.442-.45.962-.674 2.883-.674 5.758s.224 4.733.666 5.727c.443.993 1.155 1.488 2.134 1.488.979 0 1.68-.475 2.134-1.425.454-.95.681-2.883.681-5.79v.004Z"/><path fill="#BBBDBF" d="M123.889 66.579V69.1h-.869v-2.52l-1.887-3.684h.967l1.355 2.8 1.355-2.8h.967l-1.888 3.684Zm8.575 2.301a1.928 1.928 0 0 1-.763-.8 2.569 2.569 0 0 1-.27-1.202v-1.76c0-.456.09-.856.27-1.202.18-.346.434-.613.763-.801a2.252 2.252 0 0 1 1.14-.283c.431 0 .81.094 1.139.283.329.188.584.455.764.801.18.346.27.746.27 1.202v1.76c0 .455-.09.856-.27 1.201a1.93 1.93 0 0 1-.764.802 2.249 2.249 0 0 1-1.139.283c-.431 0-.811-.095-1.14-.283Zm1.817-.745c.196-.114.345-.28.451-.492.105-.212.16-.455.16-.738v-1.818c0-.28-.055-.527-.16-.739a1.166 1.166 0 0 0-.451-.49 1.312 1.312 0 0 0-.673-.174c-.255 0-.482.06-.674.173a1.139 1.139 0 0 0-.45.491 1.624 1.624 0 0 0-.161.739v1.818c0 .279.055.526.161.739.106.212.258.377.45.49.196.114.419.173.674.173.254 0 .481-.059.673-.172Zm8.878.761a1.79 1.79 0 0 1-.744-.79c-.169-.345-.255-.761-.255-1.248v-3.964h.869v3.991c0 .452.114.801.341 1.049.227.247.548.373.963.373.415 0 .74-.126.967-.373.228-.248.341-.597.341-1.049v-3.99h.869v3.963c0 .487-.086.903-.254 1.249a1.773 1.773 0 0 1-.744.79c-.325.18-.721.27-1.179.27-.458 0-.845-.09-1.17-.27h-.004Zm9.941-6.006h.869v6.214h-.869v-6.213Zm.379 2.758h2.111c.164 0 .309-.04.438-.118a.775.775 0 0 0 .298-.338c.071-.145.106-.314.106-.506a1.14 1.14 0 0 0-.106-.507.793.793 0 0 0-.294-.338.813.813 0 0 0-.438-.118h-2.111v-.828h2.076c.356 0 .673.074.943.223.27.15.482.358.631.629.148.27.223.585.223.942 0 .358-.075.668-.227.943-.149.271-.36.483-.631.629-.27.149-.583.224-.939.224h-2.076v-.83l-.004-.007Zm1.684.636.865-.196 1.582 3.012h-1.029l-1.418-2.816Zm17.835 2.884-.399-.087a3.118 3.118 0 0 1-1.398-.683l.541-.668c.234.204.493.357.779.46a2.7 2.7 0 0 0 .924.153c.446 0 .795-.083 1.041-.252a.801.801 0 0 0 .372-.707c0-.22-.054-.392-.168-.518a1.046 1.046 0 0 0-.435-.283 4.515 4.515 0 0 0-.689-.169c-.008 0-.019-.004-.027-.004s-.02 0-.028-.004l-.062-.012a6.901 6.901 0 0 1-1.01-.24 1.443 1.443 0 0 1-.666-.49c-.184-.236-.278-.577-.278-1.013 0-.39.086-.715.258-.99.173-.271.423-.48.752-.62.329-.142.724-.213 1.186-.213a3.027 3.027 0 0 1 1.289.287c.207.094.415.216.614.361l-.493.692a2.87 2.87 0 0 0-.705-.39 2.031 2.031 0 0 0-.705-.129c-.422 0-.751.086-.986.255-.235.17-.353.409-.353.72 0 .215.059.384.18.506.122.122.271.212.451.27a6.69 6.69 0 0 0 .783.19.05.05 0 0 1 .031.007.19.19 0 0 1 .047.008 5.182 5.182 0 0 1 .987.283c.251.106.462.275.63.51.169.236.255.558.255.963v.008c0 .377-.09.703-.266.97a1.678 1.678 0 0 1-.776.612c-.34.142-.748.213-1.229.213h-.447v.004Zm9.097-6.273h.869V69.1h-.869v-6.205Zm.434 5.38h3.54v.83h-3.54v-.83Zm10.529.605a1.928 1.928 0 0 1-.763-.8c-.181-.346-.271-.747-.271-1.202v-1.76c0-.456.09-.856.271-1.202.18-.346.434-.613.763-.801a2.252 2.252 0 0 1 1.14-.283c.43 0 .81.094 1.139.283.329.188.583.455.764.801.18.346.27.746.27 1.202v1.76c0 .455-.09.856-.27 1.201a1.936 1.936 0 0 1-.764.802 2.251 2.251 0 0 1-1.139.283c-.431 0-.811-.095-1.14-.283Zm1.817-.745c.196-.114.345-.28.45-.492.106-.212.161-.455.161-.738v-1.818c0-.28-.055-.527-.161-.739a1.157 1.157 0 0 0-.45-.49 1.313 1.313 0 0 0-.674-.174c-.254 0-.481.06-.673.173a1.133 1.133 0 0 0-.45.491 1.624 1.624 0 0 0-.161.739v1.818c0 .279.055.526.161.739.105.212.258.377.45.49.196.114.419.173.673.173.255 0 .482-.059.674-.172Zm12.193-2.377v1.084c0 .46-.09.868-.266 1.218a1.96 1.96 0 0 1-.76.817 2.214 2.214 0 0 1-1.139.287c-.431 0-.823-.09-1.152-.271a1.903 1.903 0 0 1-.767-.766 2.366 2.366 0 0 1-.274-1.147v-1.83c0-.46.09-.869.266-1.218.18-.35.431-.62.76-.813a2.213 2.213 0 0 1 1.139-.287c.357 0 .682.075.983.228.298.153.548.369.752.648.2.279.337.6.407.97h-.94a1.339 1.339 0 0 0-.258-.534 1.233 1.233 0 0 0-.94-.46c-.254 0-.478.063-.673.185a1.22 1.22 0 0 0-.447.514 1.78 1.78 0 0 0-.156.77v1.83c0 .268.055.503.16.704.11.2.259.357.458.467.196.11.427.165.682.165.254 0 .477-.059.673-.173.192-.114.341-.282.447-.502.105-.22.156-.48.156-.782v-.267h-1.257v-.833h2.146v-.004Zm8.066-2.863h.74l2.283 6.205h-.936l-1.715-5.007-1.715 5.007h-.936l2.283-6.205h-.004Zm-1.229 4.018h3.258v.828h-3.258v-.828Zm10.415-4.018h.787l3.027 4.8-.102.11v-4.91h.862v6.202h-.795l-3.019-4.726.102-.11v4.84h-.862v-6.207Zm18.905 0h.869V69.1h-.869v-6.205Zm.54 2.737h3.434v.829h-3.434v-.829Zm2.976-2.738h.869V69.1h-.869v-6.205Zm7.632.001h.869V69.1h-.869v-6.205Zm.423 0h3.555v.828h-3.555v-.828Zm0 2.71h3.085v.828h-3.085v-.828Zm0 2.667h3.555v.828h-3.555v-.828Zm10.016-5.382h.869v6.214h-.869v-6.213Zm.379 2.758h2.111a.782.782 0 0 0 .736-.456c.07-.145.106-.314.106-.506 0-.193-.036-.362-.106-.507a.8.8 0 0 0-.294-.338.813.813 0 0 0-.438-.118h-2.111v-.828h2.076c.356 0 .673.074.943.223.27.15.482.358.631.629.148.27.223.585.223.942 0 .358-.075.668-.227.943a1.548 1.548 0 0 1-.631.629c-.27.149-.583.224-.939.224h-2.076v-.83l-.004-.007Zm1.684.636.865-.196 1.582 3.012h-1.03l-1.417-2.816Zm8.85-3.389h.869V69.1h-.869v-6.205Zm.423 0h3.555v.828h-3.555v-.828Zm0 2.71h3.085v.828h-3.085v-.828Zm0 2.667h3.555v.828h-3.555v-.828Zm74.78-2.639h-69.906v.715h69.906v-.715Z"/></svg>